<svg xmlns="http://www.w3.org/2000/svg" viewBox="0 0 135.58 116.19"><defs><style>.cls-1{fill:#f05f40;}</style></defs><title>Recurso 3</title><g id="Capa_2" data-name="Capa 2"><g id="Pagina_Movil" data-name="Pagina Movil"><g id="HygXkX"><path class="cls-1" d="M96.85,19.39h1.47c8.18,0,16.37,0,24.55,0,5.26,0,9.15,2.27,11.45,6.94a12.24,12.24,0,0,1,1.19,5.12c.11,9.45.05,18.89.05,28.33a6,6,0,0,1-.06.69H.08c0-.34-.07-.66-.07-1C0,50.26,0,41,0,31.82a12,12,0,0,1,9-12,15,15,0,0,1,3.85-.41c8.11,0,16.22,0,24.33,0h1.44c0-.51.06-.94.06-1.37,0-3.92-.06-7.85.18-11.76A6.85,6.85,0,0,1,45.38.07c.37,0,.74-.06,1.11-.06Q67.76,0,89,0c3.19,0,5.65,1.22,7,4.12a9.75,9.75,0,0,1,.76,3.76c.1,3.36,0,6.73,0,10.1ZM87.08,9.76H48.53v9.56H87.08Z"/><path class="cls-1" d="M50.86,67.88v1.26c0,3.44,0,6.88,0,10.33,0,3.22,2,5.21,5.17,5.25,2.81,0,5.63,0,8.44,0,4.82,0,9.64-.11,14.45,0,3.76.12,6-2.39,5.83-5.78s0-6.59,0-9.88V67.85h50.8c0,.34.05.7.05,1.05,0,11.59,0,23.18,0,34.77a12,12,0,0,1-9,12.06,14.47,14.47,0,0,1-3.84.44q-55,0-110,0c-5.29,0-9.23-2.26-11.54-7a12.42,12.42,0,0,1-1.17-5.13C0,92.19,0,80.3,0,68.41c0-.14,0-.29,0-.53Z"/><path class="cls-1" d="M77.48,77.41H58.18V67.87c.36,0,.71-.08,1.06-.08,5.69,0,11.39,0,17.09,0,.94,0,1.18.29,1.17,1.2C77.44,71.73,77.48,74.5,77.48,77.41Z"/></g></g></g></svg>