<svg xmlns="http://www.w3.org/2000/svg" viewBox="0 0 225 225"><defs><style>.cls-1{fill:#f05f40;}</style></defs><title>Recurso 6</title><g id="Capa_2" data-name="Capa 2"><g id="Pagina_Movil" data-name="Pagina Movil"><g id="nWk18f"><path class="cls-1" d="M107,0h11c4.37.74,8.72,1.55,13.1,2.21,44,6.7,81.49,42.12,90.58,85.83,1.37,6.6,2.23,13.3,3.32,20v9q-1.11,6.8-2.21,13.6c-7.37,45.63-41.31,81.34-86.83,91.18-6.26,1.36-12.64,2.16-19,3.22h-9c-4.54-.73-9.07-1.49-13.61-2.19A111.17,111.17,0,0,1,3.24,136.47C2,130.36,1.07,124.16,0,118V107c.73-4.2,1.58-8.38,2.18-12.6C8.49,50.67,43.46,12.37,89,3.14,95,1.93,101,1,107,0ZM21.52,112.52c-1,49.59,41.45,91.31,91.25,91.13,49.46-.17,90.62-41.54,90.88-90.7.26-50.12-41.79-91.81-91.45-91.65C62.7,21.47,20.51,63,21.52,112.52Z"/><path class="cls-1" d="M156.86,65.65l19,18.95L94.15,166.15,48.57,120.49l18.8-18.61c3,3,6.64,6.56,10.24,10.16,4.25,4.23,8.68,8.3,12.66,12.78,2.88,3.23,4.66,2.71,7.5-.17C116.14,106,134.69,87.6,153.19,69.11,154.47,67.83,155.82,66.62,156.86,65.65Z"/></g></g></g></svg>