<svg xmlns="http://www.w3.org/2000/svg" viewBox="0 0 173.89 129.48"><defs><style>.cls-1{fill:#f05f40;}</style></defs><title>Recurso 5</title><g id="Capa_2" data-name="Capa 2"><g id="Pagina_Movil" data-name="Pagina Movil"><g id="_9NoVvt" data-name="9NoVvt"><path class="cls-1" d="M173.89,74.93a14.93,14.93,0,0,1-4,7.73,13.81,13.81,0,0,1-9.71,3.78c-1.4,0-2.81,0-4.48,0v2.08q0,16.65,0,33.29a17.41,17.41,0,0,1-.17,2.7,5.93,5.93,0,0,1-5,4.9,5.79,5.79,0,0,1-6.15-3.25c-2.44-5.07-6.32-9-10.52-12.51-11.5-9.72-24.14-17.53-38.58-22.16a107.88,107.88,0,0,0-25.91-5,2.09,2.09,0,0,0-1.66.62,11.61,11.61,0,0,1-11.21,6.54,3.23,3.23,0,0,0-.67.18l1.65,10c.54,3.29,1.23,6.56,1.6,9.87.62,5.51-3,9.59-8.53,9.75-3.28.09-6.57.08-9.85,0a8.39,8.39,0,0,1-8.5-7.28C31,109,29.79,101.79,28.56,94.6c0-.27-.12-.53-.21-1H23.6C16.39,93.63,12.2,90,11.11,83a8.8,8.8,0,0,0-.26-.86,10.25,10.25,0,0,1-8.18-3,9.72,9.72,0,0,1-2.67-7c0-4.76,0-9.51,0-14.27C0,51.56,3.75,47.7,10,47.42c.28,0,.55-.06.74-.08a29.32,29.32,0,0,1,1.33-4.76,11.1,11.1,0,0,1,10.7-6.72c6.34,0,12.68,0,19,0H56.93a11.14,11.14,0,0,1,10.62,6.29c.49.94,1.1.94,1.91.88a107.68,107.68,0,0,0,26.07-5.09,112.22,112.22,0,0,0,41.52-25,30.53,30.53,0,0,0,7.44-9.8A5.66,5.66,0,0,1,150.42.06a5.94,5.94,0,0,1,5.11,4.76,16.1,16.1,0,0,1,.2,2.87q0,16.56,0,33.11v2.13c2.2.1,4.29.07,6.34.31,6,.72,10.1,4.44,11.52,10.36.07.32.19.64.29,1Z"/></g></g></g></svg>