<svg xmlns="http://www.w3.org/2000/svg" viewBox="0 0 290.45 212.69"><defs><style>.cls-1{fill:#130f0f;}.cls-2{fill:#ebefef;}.cls-3{fill:#838383;}.cls-4{fill:#b4b4b4;}.cls-5{fill:#d7d7d7;}.cls-6{fill:#e9eded;}.cls-7{fill:#fefefe;}.cls-8{fill:#e35136;}.cls-9{fill:#b13424;}.cls-10{fill:#4f2825;}.cls-11{fill:#b33c2a;}.cls-12{fill:#b33b29;}.cls-13{fill:#85241c;}.cls-14{fill:#ea9383;}.cls-15{fill:#f6d6d0;}.cls-16{fill:#e77560;}.cls-17{fill:#9d2d1e;}.cls-18{fill:#949494;}.cls-19{fill:#eaeded;}.cls-20{fill:#ebeeee;}.cls-21{fill:#e9ecec;}.cls-22{fill:silver;}.cls-23{fill:#d0d0d0;}.cls-24{fill:#ee9382;}.cls-25{fill:#b23927;}.cls-26{fill:#bf8f8b;}.cls-27{fill:#6b1912;}.cls-28{fill:#d1aeab;}.cls-29{fill:#d9bcb9;}.cls-30{fill:#b33a28;}.cls-31{fill:#9c2c1f;}</style></defs><title>Recurso 12</title><g id="Capa_2" data-name="Capa 2"><g id="Pagina_Movil" data-name="Pagina Movil"><g id="proyecto_5" data-name="proyecto 5"><path class="cls-1" d="M145.22,212.66q-72.6,0-145.22,0Q0,106.34,0,0,145.23,0,290.45,0q-.06,106.35,0,212.69Q217.83,212.63,145.22,212.66Z"/><path class="cls-2" d="M64.63,124.56a69.3,69.3,0,0,1-2-15.3A83.62,83.62,0,0,1,97.31,38.15c16.84-12.48,35.83-17,56.44-15.12A76.3,76.3,0,0,1,190.89,36.4c9.4,6.54,17.61,14.41,23.72,24.22a84.63,84.63,0,0,1,13,52.34,65.82,65.82,0,0,1-1.77,11.6,2.19,2.19,0,0,1-1.76.63c-1.71,0-3.42,0-5.14,0-1.37,0-2.28-.56-2.36-2-.05-.84-.27-1.44-1.28-1.47s-1.32.64-1.38,1.54c-.08,1.39-.93,2-2.24,2-.91,0-1.82,0-2.73,0-1.86-.09-2.2-.37-2.72-2.46-.17-.69-.48-1-1.19-1a1,1,0,0,0-1.05,1c-.12,1-.14,2.08-1.34,2.31-1.51.29-3.09.61-4.4-.65a13,13,0,0,1-.71-4.54c-.05-1.43-.17-2.86-.31-4.28a16.7,16.7,0,0,1,.26-4.52c1.56-1.86,1.71-4,1.67-6.35-.1-5,0-9.89,0-14.83-.66-1.82-2.31-2.77-3.67-3.89-8.54-7-17.29-13.77-25.75-20.87C163.18,59.61,156.5,54.41,150,48.93a14.1,14.1,0,0,0-2.17-1.65,6.82,6.82,0,0,1-1.4-1,3.15,3.15,0,0,1-1.05-2.19c0-2.83,0-5.65,0-8.48,0-2.46.71-3,3.16-2.38.67.38.67,1,.7,1.68a3.19,3.19,0,0,0,.26,1.72,1.52,1.52,0,0,0,.38.24h12.54a5.26,5.26,0,0,0-1.36-1.57c-1.17-1.16-1.17-1.65,0-2.79.37-.37.87-.61,1.12-1.16-2.51-.4-5.06.35-7.52-.46A2.15,2.15,0,0,1,154,29c.06-1.32-.62-1.63-1.77-1.59-1.49,0-3,0-4.46,0a2.42,2.42,0,0,1-2.25-.9c-.15-.25-.3-.33-.41,0-.07,5.47,0,10.93,0,16.39a3.74,3.74,0,0,1-1.17,3.17,2.82,2.82,0,0,1-.52.57,3.83,3.83,0,0,0-1.51,1.1c-5.45,4.36-11,8.64-16.28,13.18-10,8.57-20.44,16.56-30.6,24.93-1.07.89-1.94,2-3.09,2.82a1.27,1.27,0,0,0-.55,1.11c0,5.69,0,11.37,0,17A4.77,4.77,0,0,0,92.39,110a3.46,3.46,0,0,1,.93,1.83c-.1,1.26,0,2.52-.12,3.77-.28,2.5-.1,5-.55,7.53a3.24,3.24,0,0,1-.51,1.51c-1.56.92-3.22.63-4.84.32-1-.18-1.3-1.06-1.4-2s-.34-1.35-1.27-1.31-.95.66-1.06,1.33c-.3,1.74-.68,2.06-2.43,2.15-.8,0-1.61,0-2.42,0-2-.07-2.43-.41-2.83-2.33-.14-.64-.28-1.14-1.06-1.16s-1.1.38-1.26,1.13c-.43,2-.85,2.29-2.83,2.35-1.39,0-2.79,0-4.19,0A2.35,2.35,0,0,1,64.63,124.56Z"/><path class="cls-3" d="M208.13,160.38c-4.47,6.24-10.39,10.91-16.6,15.24a86.22,86.22,0,0,1-20.43,10.1c-16.23,5.82-32.55,5.58-49,1.14-1.09-.29-2-1-3-1.33a16.66,16.66,0,0,1-3.22-2.64c-5.83-5.69-11.73-11.3-17.43-17.11-1-1-2.25-1.82-3.21-2.92-.49-.56-1.1-1.07-.86-2a.86.86,0,0,1,.53-.46c1.54,0,2.57,1.29,4,1.49,4,1.27,8,2.57,12.22,2.81,2.37,1,4.93,1,7.4,1.39,1.31.23,2.65.37,4,.5,1.52-.13,3,.31,4.51.33,8.87.7,17.76.51,26.64.5,3.26,0,6.5-.46,9.76-.52,1.55,0,3.06-.47,4.62-.31,3.82-.49,7.63-1.09,11.45-1.6A101.66,101.66,0,0,0,191.41,162a27.77,27.77,0,0,0,6.69-3.57c1.39-.68,1.52-2.35,2.6-3.28a.78.78,0,0,1,.62.06A49,49,0,0,1,208.13,160.38Z"/><path class="cls-4" d="M94.56,161c.31,1.19,1.32,1.82,2.14,2.54,4,3.53,7.57,7.45,11.39,11.12,3.25,3.12,6.47,6.26,9.7,9.41.45.44.85,1,1.28,1.43a78.71,78.71,0,0,1-30.29-18A84.38,84.38,0,0,1,69.08,139a7.25,7.25,0,0,1-.29-.9c.55-.58,1.28-.43,2-.48,3.26-.22,6.53.07,9.79,0,2.79-.07,5.57-.12,8.35,0a6.14,6.14,0,0,1,1.91.18c1,.67.81,1.68.73,2.62-.43,4.74-.65,9.5-1,14.25A4.63,4.63,0,0,0,92,158.12a7.41,7.41,0,0,1,1.85,1.55A3.79,3.79,0,0,1,94.56,161Z"/><path class="cls-4" d="M208.13,160.38c-1.62-.38-2.64-1.71-4-2.57s-2.3-1.7-3.44-2.56a2.14,2.14,0,0,1-.95-2.08c-.2-4.38-.56-8.75-.91-13.12a2.43,2.43,0,0,1,.54-2.11,25.82,25.82,0,0,1,6.68-.41,76.24,76.24,0,0,0,8,0c2.19-.16,4.37.25,6.57.18a1.29,1.29,0,0,1,1,.44A76.14,76.14,0,0,1,208.13,160.38Z"/><path class="cls-5" d="M221.66,138.12H199.49a.28.28,0,0,1-.1-.27c0-.1,0-.14.06-.14.67-.59,1.51-.38,2.29-.49.44-.06.89-.13.87-.71s-.48-.6-.91-.69c-.9-.18-1.78.39-2.67,0a4.38,4.38,0,0,1-.18-4.1c.68-.79,1.64-.63,2.52-.68s1.3-.26,1.29-1.2-.6-1.08-1.36-1.13c-.93,0-1.93.15-2.72-.6-.55-1.29-1.23-2.58,0-3.89,1.28.63,2.64.27,4,.29,1,0,.77-.84.79-1.45.07-1.9,1.15-2.64,3-2,.8.27.65.94.59,1.47-.2,1.7.57,2.22,2.14,2a12.13,12.13,0,0,1,2.41,0c1.41.15,2.14-.26,1.94-1.84-.06-.56-.34-1.46.54-1.63a4.88,4.88,0,0,1,3,.12c.53.26.35,1,.28,1.5-.2,1.53.47,1.93,1.91,1.86,2.25-.1,4.51,0,6.76,0a13.13,13.13,0,0,1-.91,3.56,2.7,2.7,0,0,1-2.08.62c-1.22,0-2.45,0-3.68,0-.81,0-1.33.27-1.31,1.2s.55,1,1.27,1.07c1,0,1.92,0,2.88,0,.68,0,1.41,0,1.9.6a13.11,13.11,0,0,1-1.25,3.56c-1,.91-2.21.48-3.34.62-.54.07-1.35-.14-1.32.73s.77.55,1.27.61c.86.13,1.83-.18,2.51.65A.29.29,0,0,1,221.66,138.12Z"/><path class="cls-5" d="M91,138.11H68.79a.27.27,0,0,1-.1-.29c.67-.84,1.65-.52,2.51-.65.42-.07.94,0,1-.61s-.54-.66-1-.72c-1.13-.16-2.37.28-3.36-.63a13.82,13.82,0,0,1-1.25-3.56c1-.95,2.22-.5,3.35-.61.53-.05,1.07,0,1.59-.07.7-.1.81-.6.79-1.18a.94.94,0,0,0-1-1c-1.17-.06-2.34,0-3.51,0a2.9,2.9,0,0,1-2.25-.62,13.21,13.21,0,0,1-.9-3.56c2.14,0,4.3,0,6.44,0,1.37,0,2.09-.38,1.87-1.82s.48-1.8,1.84-1.79,1.92.35,1.73,1.73.37,2,1.81,1.86c.47,0,1,0,1.45,0a7.28,7.28,0,0,0,2.7-.15c1-.46.36-1.64.47-2.49.18-1.32,1.18-.84,1.88-.87s1.62-.34,1.68.89a4.28,4.28,0,0,1,0,.8c-.17,1.42.47,2,1.86,1.84,1.18-.08,2.36,0,3.55,0,1.11,1.19.58,2.38,0,3.57-1,.87-2.23.52-3.37.61-.76,0-1.38.16-1.36,1.14s.59,1.11,1.37,1.17c1,.08,2.16-.21,3,.65a4.9,4.9,0,0,1-.14,4.44c-1.05.18-2-.61-3.07-.34-.5.13-1.18,0-1.11.82s.69.54,1.13.6c.88.11,1.82-.16,2.61.47A.31.31,0,0,1,91,138.11Z"/><path class="cls-2" d="M223.89,131.66c-1.76,0-3.53-.08-5.29,0-1.51.1-1.42-.8-1.45-1.82s.07-1.85,1.51-1.78c2.08.11,4.17,0,6.25,0A13.19,13.19,0,0,1,223.89,131.66Z"/><path class="cls-2" d="M65.53,128.12c2,0,4,.09,5.93,0,1.44-.08,1.53.69,1.5,1.78s.07,1.92-1.44,1.82-3.31,0-5,0A14,14,0,0,1,65.53,128.12Z"/><path class="cls-6" d="M221.76,137.83c-1,0-2-.06-3,0s-1.61-.09-1.59-1.34.62-1.28,1.52-1.26c1.33,0,2.66,0,4,0A7.14,7.14,0,0,1,221.76,137.83Z"/><path class="cls-6" d="M67.8,135.22c1.19,0,2.37,0,3.55,0,1,0,1.65.07,1.63,1.35s-.65,1.27-1.55,1.25-1.83,0-2.74,0A7.35,7.35,0,0,1,67.8,135.22Z"/><path class="cls-7" d="M143.06,46.48a.36.36,0,0,0,.21-.17.64.64,0,0,1,1.16,0,1.26,1.26,0,0,1-.28,1.13,38.47,38.47,0,0,0-3.92,5.48c-6.69,9.7-13.23,19.52-20,29.16a51.24,51.24,0,0,0-3.71,5.64,3.77,3.77,0,0,1-1.81,1.78l-.52.13c-3.25.26-6.49.1-9.74.09a2.42,2.42,0,0,1-1.22-.32c-.54-.38-.38-.84-.07-1.25a29,29,0,0,1,2.66-3.42C111.72,79,117.29,73,123,67.09c4.13-4.27,8.22-8.6,12.21-13a79.27,79.27,0,0,1,6.57-6.39A13.39,13.39,0,0,1,143.06,46.48Z"/><path class="cls-7" d="M147,46.18l1,.62c4.5,4.38,9,8.8,13.19,13.44,7.3,8,14.92,15.76,22.52,23.51,1.28,1.3,2.31,2.83,3.51,4.21.43.51.78,1.12-.17,1.55a70.52,70.52,0,0,1-10.68.1c-.17,0-.34-.08-.51-.12A3.8,3.8,0,0,1,174,87.76c-3.44-5.76-7.49-11.12-11.29-16.63-5-7.24-9.74-14.65-14.8-21.84-.4-.57-.87-1.08-1.26-1.66a1.45,1.45,0,0,1-.16-.47,1.23,1.23,0,0,1,.11-.73A.47.47,0,0,1,147,46.18Z"/><path class="cls-8" d="M142,47.81c-4.18,4.33-8.46,8.57-12.51,13-7.82,8.58-16.08,16.72-24.08,25.1A30.1,30.1,0,0,1,103,88.84a1.2,1.2,0,0,1-.65.64c-3.46.5-6.94.2-10.41.17a1.41,1.41,0,0,1-1.11-.57c6.4-6,13.52-11.2,20.29-16.79,4-3.27,8.15-6.32,12-9.73,6-5.31,12.35-10.12,18.55-15.15C142,47.34,142.09,47.48,142,47.81Z"/><path class="cls-8" d="M187.5,89.06c-4.62-5.78-10.08-10.77-15.12-16.16-3.07-3.29-6.37-6.38-9.35-9.75-4.5-5.1-9.36-9.86-14-14.79A3.07,3.07,0,0,1,148,46.8c4.12,3.26,8.31,6.44,12.33,9.81,11.91,10,24.07,19.66,36.15,29.43,1.15.93,2.16,2,3.24,3a1.78,1.78,0,0,1-1.44.62c-3.16,0-6.32.08-9.48,0a2.65,2.65,0,0,1-.78-.21A1.16,1.16,0,0,1,187.5,89.06Z"/><path class="cls-9" d="M90.78,89.08l11.85,0a2.51,2.51,0,0,1,.65,2.08c0,5.31,0,10.62,0,15.93a6.86,6.86,0,0,1-.79,2.48c-1.51,3-4,3.92-7.21,3.5a3.47,3.47,0,0,1-2.32-1.1c0-.21,0-.51-.16-.61-2.21-1.77-2.2-4.21-2.16-6.72.08-4.61,0-9.22,0-13.83C90.65,90.25,90.73,89.67,90.78,89.08Z"/><path class="cls-9" d="M187.78,89.1l11.89,0c.31,3.1.08,6.2.13,9.3,0,2.89,0,5.78,0,8.67a4.59,4.59,0,0,1-2,4c-.2,1.53-1.39,1.82-2.62,2.06-3.62.39-5.68-.62-7.2-3.53a8.46,8.46,0,0,1-.82-2.44c-.06-5.31,0-10.62,0-15.92A2.72,2.72,0,0,1,187.78,89.1Z"/><path class="cls-8" d="M91,138.11a.5.5,0,0,0,0-.32,1,1,0,0,1,.07-1.56,18.33,18.33,0,0,0,.29-4.56,3.61,3.61,0,0,1,.28-3.54c.1-1.19.19-2.38.29-3.57l.75-9a2.41,2.41,0,0,1,2.6,1.26c.5,2.3-.05,4.59-.2,6.87q-.37,5.76-.8,11.54c-.4,5.66-.73,11.33-1.23,17a31.78,31.78,0,0,1-.35,5c-.15.58-.19,1.18-.73,1.56a4.9,4.9,0,0,1-2-4.72C90.41,148.72,90.63,143.41,91,138.11Z"/><path class="cls-8" d="M199.13,131.67a15.74,15.74,0,0,0,.28,4.22,1.27,1.27,0,0,1,.07,1.9.44.44,0,0,0,0,.32c.34,5.72.65,11.44,1.24,17.14a5.2,5.2,0,0,1-2.22,3.44c-1.07-1.19-.87-2.72-1-4.11L196,131.85c-.32-4.49-.59-9-1-13.45a3.4,3.4,0,0,1,.19-1.58,2.42,2.42,0,0,1,2.62-1.27c.25,2.9.5,5.79.74,8.69l.3,3.89A3.56,3.56,0,0,1,199.13,131.67Z"/><path class="cls-9" d="M154.9,30.69H164A26.72,26.72,0,0,1,161.38,33c-1.17.76-.91,1.29.05,2a16,16,0,0,1,1.81,1.59c.21.2.64.32.5.72s-.54.27-.83.27c-1.88,0-3.75,0-5.63,0l-7.87-.07c-.32-.78.19-1.18.72-1.55.83-.58,1.69-1.11,2.53-1.67,0-.08-.08-.1-.22-.1-2.35,0-2.34,0-3,2.26a2.38,2.38,0,0,1-.38,1c-.62-1.24-.08-2.58-.31-3.86,0-.65.56-.69,1-.8a4,4,0,0,1,1.42-.09C152.89,32.84,154.33,32.6,154.9,30.69Z"/><path class="cls-8" d="M154.9,30.69c-.09,2.81.41,2.53-2.71,2.59-1.14,0-2.32-.31-3.42.28-3-.06-3-.06-3,2.85,0,2.72,0,5.43,0,8.15a.43.43,0,0,1-.53-.22,1.89,1.89,0,0,1-.21-.93c0-5.47,0-10.94,0-16.41,0-.52,0-1.1.62-1.35,0,.86.31,1.29,1.34,1.24,2.09-.1,4.18,0,6.27-.05,1.16-.05,1.49.39,1.43,1.48A4.9,4.9,0,0,0,154.9,30.69Z"/><path class="cls-10" d="M145.7,25.65c-.28,6.27,0,12.55,0,18.82a.62.62,0,0,1-.86.1c-.23-4.13-.06-8.25-.09-12.38,0-2.31-.07-4.61,0-6.92C145.28,24.94,145.55,25.15,145.7,25.65Z"/><path class="cls-11" d="M197.8,115.55a5.59,5.59,0,0,1-2.26,1l-.22-.17c-.66-1.23-1-2.46-.1-3.72.92-.45,2.11-.48,2.61-1.61C197.45,112.53,198,114,197.8,115.55Z"/><path class="cls-12" d="M94.92,116.54a5.53,5.53,0,0,1-2.26-1,11.5,11.5,0,0,1,.28-3.56,6,6,0,0,1,2.28.65,3.09,3.09,0,0,1,0,3.75Z"/><path class="cls-13" d="M149.08,37.41c0-3.88,0-3.88,3.91-3.82.31,0,.62,0,1.41.08-1.52,1-2.67,1.8-3.84,2.56-.49.32-1.11.48-1.15,1.21Z"/><path class="cls-14" d="M144.79,25.27l.09,19.37c.46.76.13,1.19-.62,1.45l-1,.22c1.48-1.34,1.32-3.09,1.3-4.85,0-4.83,0-9.65,0-14.48C144.57,26.41,144.37,25.79,144.79,25.27Z"/><path class="cls-15" d="M144.26,46.09a3.59,3.59,0,0,0,.62-1.45l.82-.17.12.09L147,46.18c-.05.1-.09.2-.14.29-.28.26-.58.09-.88.05a.79.79,0,0,0-.33.1,1.2,1.2,0,0,1-.69.3c-.37-.09-.41-.52-.71-.68Z"/><path class="cls-16" d="M142,47.81l-.4-.4a1.81,1.81,0,0,1,1.44-.93A2.34,2.34,0,0,1,142,47.81Z"/><path class="cls-17" d="M163.61,167.47c-9.73,1-19.5.81-29.25.56a39.67,39.67,0,0,1-7.53-.56,2.65,2.65,0,0,1-.55-2.25c.29-5.22.63-10.44.89-15.66.12-2.5.37-5,.34-7.52,0-.67,0-1.42.86-1.73.78,2.31,2.53,1.81,4.38,1.78,6.47-.1,12.93-.88,19.41-.14,2.5.28,5-.11,7.54.32a1.35,1.35,0,0,0,1.78-1.15,1.28,1.28,0,0,1,.52-.79c1,.25.95,1.11.94,1.81,0,5,.48,10.05.75,15.07.14,2.66.06,5.35.46,8A2.39,2.39,0,0,1,163.61,167.47Z"/><path class="cls-8" d="M110.86,165c-.16.28-.32.53-.74.44-3.84-.85-7.75-1.48-11.39-3.07a2.23,2.23,0,0,1-.54-1.8c.31-3.3.42-6.62.7-9.93.31-3.79.55-7.58.83-11.37.43-5.72.73-11.44,1.2-17.15.2-2.34.3-4.7.58-7,.17-.83-.16-1.75.45-2.51s1.14-.64,1.62.27a6,6,0,0,0,9.39,1.77c.45-.37.91-1.32,1.66-.3a6.78,6.78,0,0,1,.23,3.19c-.64,7.69-1.06,15.4-1.62,23.09s-1.11,15.18-1.59,22.78C111.6,164,111.6,164.66,110.86,165Z"/><path class="cls-8" d="M191.75,162.33a56.32,56.32,0,0,1-12.12,3.16,2.6,2.6,0,0,1-.8-1.87c-.07-3.6-.45-7.16-.7-10.74-.39-5.72-.82-11.43-1.18-17.14-.23-3.74-.53-7.48-.78-11.22-.15-2.19-.23-4.38-.49-6.56a7.94,7.94,0,0,1,.14-3.66c.6-1,1.12-.24,1.53.16,1.89,1.84,4.19,1.71,6.47,1.25a4.2,4.2,0,0,0,3.05-2.84c.42-1,1-1.24,1.65-.2a4.19,4.19,0,0,1,.41,2.09c.62,4.89.74,9.81,1.15,14.72.47,5.49.77,11,1.17,16.49.26,3.68.58,7.36.75,11,0,.86.14,1.71.24,2.56A3.34,3.34,0,0,1,191.75,162.33Z"/><path class="cls-7" d="M176.15,113.92c.37,5.89.71,11.78,1.12,17.67q1,15.43,2.15,30.85l.21,3.05a104.79,104.79,0,0,1-11.43,1.62c-1.13-1.3-.89-3-1-4.45-.43-7.6-1.11-15.18-1.59-22.77-.34-5.51-.76-11-1.1-16.53-.12-2-.16-4-.45-5.93a3.52,3.52,0,0,1,.14-1.9c.54-.9,1.29-.55,2-.26A10.05,10.05,0,0,0,169,116a5.75,5.75,0,0,0,6-3.1,1,1,0,0,1,1-.3C176.35,113,176.65,113.37,176.15,113.92Z"/><path class="cls-7" d="M110.86,165c.47-6.48,1-12.95,1.4-19.43q1-15.26,2.06-30.52a10.28,10.28,0,0,0,0-1.11c-.51-.53-.32-1,.18-1.36a1,1,0,0,1,1,.26c1.91,3.23,4.75,4.09,9.08,2.29.56-.23,1.17-.71,1.69.11.53,2.3,0,4.59-.18,6.87-.22,3.74-.52,7.48-.81,11.22-.43,5.77-.78,11.55-1.2,17.32-.28,3.79-.57,7.59-.78,11.39-.1,1.72.16,3.56-1,5.09-3.39-.45-6.77-.88-10.16-1.35C111.61,165.69,111,165.71,110.86,165Z"/><path class="cls-7" d="M102,114.53q-1.61,22.78-3.2,45.57c-.06.75-.07,1.5-.1,2.25-1.51,0-2.45-1.27-3.78-1.68a2.73,2.73,0,0,1-1.33-.57L92,158.73l3-42.19H95a1.65,1.65,0,0,1,1.56-.58,5.74,5.74,0,0,0,4.25-1.38C101.1,114.31,101.59,113.8,102,114.53Z"/><path class="cls-7" d="M191.75,162.33q-1.62-23.07-3.23-46.16c-.05-.64,0-1.28,0-1.93.05,0,.12-.06.15,0a13.79,13.79,0,0,0,6.51,2c.14,0,.25.19.35.31h0l3,42.16A23.52,23.52,0,0,1,191.75,162.33Z"/><path class="cls-8" d="M164.63,115.23q1,14.7,2,29.39.78,11.25,1.54,22.49a32,32,0,0,1-4.59.36c-.41-6.87-.84-13.73-1.23-20.6-.08-1.44,0-2.89,0-4.34a3.89,3.89,0,0,0-.28-2.18,1.84,1.84,0,0,1-.67-1.57c-.29-3.37-.45-6.75-.61-10.12-.18-3.8-.53-7.6-.57-11.41.23-2,2-3.13,2.69-4.84.3-.69.82-.56,1.17.08s.5,1.18.8,1.74A1.13,1.13,0,0,1,164.63,115.23Z"/><path class="cls-8" d="M122.25,167.11l3.54-50.61c0-.54,0-1.07,0-1.61a.77.77,0,0,1-.19-.71c.48-.72.37-2.07,1.37-2.12s1,1.24,1.48,1.91,1.4,1.33,1.7,2.29a52.14,52.14,0,0,1-.26,7.5c-.16,3.15-.4,6.29-.5,9.43-.06,1.93-.44,3.82-.4,5.75a1.52,1.52,0,0,1-.64,1.4,2.27,2.27,0,0,0-.27,1.55c0,7.37-.94,14.7-1,22.07,0,1.17-.34,2.33-.27,3.51A30.52,30.52,0,0,1,122.25,167.11Z"/><path class="cls-18" d="M93.62,160.1a1.69,1.69,0,0,1,1.33.57l-.39.36A2,2,0,0,1,93.62,160.1Z"/><path class="cls-2" d="M210.09,128.12a7.82,7.82,0,0,0,1.28,0c1.57-.23,2,.42,2,2,0,1.3-.47,1.7-1.7,1.6-1-.08-2,0-3.06,0-.62,0-1.42.17-1.64-.64a4.4,4.4,0,0,1,0-2.54c.14-.41.62-.35,1-.35Z"/><path class="cls-19" d="M210,137.8c-.64,0-1.29,0-1.93,0s-1.24-.15-1.23-1.05.12-1.52,1.18-1.52c1.39,0,2.79,0,4.18,0,1,0,1.11.56,1.11,1.35s-.16,1.26-1.06,1.23C211.51,137.77,210.76,137.79,210,137.8Z"/><path class="cls-20" d="M199.13,131.67a12.78,12.78,0,0,1-.29-3.54c1.06,0,2.13.05,3.19,0,1.48-.1,1.26.9,1.27,1.8s.15,1.88-1.3,1.77C201.05,131.61,200.09,131.67,199.13,131.67Z"/><path class="cls-6" d="M199.48,137.79c0-.63,0-1.26-.07-1.9.9-1.35,2.23-.56,3.34-.56.79,0,.5.91.54,1.46.06.77-.37,1-1.08,1C201.3,137.78,200.39,137.79,199.48,137.79Z"/><path class="cls-2" d="M79.83,131.67a9.88,9.88,0,0,0-1.44,0c-1.63.25-2-.53-1.93-2,.05-1.16.35-1.66,1.56-1.56,1,.08,2,0,3,0a2,2,0,0,1,1.79,3.11c-.22.41-.58.42-1,.43H79.83Z"/><path class="cls-20" d="M91.62,128.13a10.82,10.82,0,0,1-.28,3.54H88.61c-2,0-2.6-.89-2.09-2.85.17-.64.58-.69,1.09-.69Z"/><path class="cls-19" d="M79.87,135.23c.59,0,1.18,0,1.77,0,1-.07,1.34.29,1.33,1.28s-.33,1.35-1.31,1.31c-1.33-.05-2.67-.05-4,0-1,0-1.18-.45-1.17-1.28s.16-1.37,1.14-1.31C78.38,135.26,79.13,135.23,79.87,135.23Z"/><path class="cls-21" d="M91.05,136.23,91,137.79H87.59c-.5,0-1,0-1-.71s-.17-1.2.36-1.65,3.54-.34,3.91,0C91,135.64,91,136,91.05,136.23Z"/><path class="cls-7" d="M144.24,46.24c.5-.1.59.27.69.62a2.31,2.31,0,0,1,.36,2.12c-1.37,10.86-3,21.68-4.46,32.52-.26,1.91-.56,3.82-.8,5.73a2.81,2.81,0,0,1-1,2.13,2.62,2.62,0,0,1-1.39.35c-3.38-.09-6.76.3-10.13-.22-1.12-.67-.6-1.6-.31-2.42C128.31,84,129.63,81,130.9,78c3.7-8.7,7.13-17.5,10.72-26.23a27,27,0,0,1,2.31-4.59Z"/><path class="cls-8" d="M143.93,47.15a10.39,10.39,0,0,1-1.16,3.3q-7.22,17.65-14.45,35.27c-.45,1.09-.77,2.22-1.15,3.33a2.81,2.81,0,0,1,.64,2.1q0,7.18,0,14.36a2.85,2.85,0,0,1-.45,1.84.48.48,0,0,1-.56.16,3.09,3.09,0,0,1-.6-2.42c0-4.44,0-8.89,0-13.34,0-1.86-.16-2-2-2-2.31,0-4.61,0-6.92,0a3.63,3.63,0,0,1-2.17-.42l-.19-.24q7.63-11.13,15.27-22.27c4.21-6.15,8.39-12.31,12.6-18.45C143.05,47.89,143.21,47.22,143.93,47.15Z"/><path class="cls-22" d="M102.65,107.43q0-9.17,0-18.33l.32-.26c1.56.51,3.16.18,4.74.23,2.29.07,4.58,0,6.87.05.63.6.48,1.39.48,2.12q0,6,0,12.09a9.08,9.08,0,0,0,.28,2.55,4.91,4.91,0,0,1,0,2c-.14.53-.46,1-.61,1.51a6,6,0,0,1-5.81,3.78C105.23,113.23,103.11,111.29,102.65,107.43Z"/><path class="cls-23" d="M114.82,106.18a2.67,2.67,0,0,1-.24-1.71q0-7.68,0-15.35a1.54,1.54,0,0,1,.31-.05.33.33,0,0,1,.17,0,3.11,3.11,0,0,1,.51,2c0,4.32,0,8.64,0,13C115.54,104.8,115.6,105.64,114.82,106.18Z"/><path class="cls-7" d="M145.5,45.86h.44a7.71,7.71,0,0,0,.91,1.34v.16a121.73,121.73,0,0,1,5.63,13.13c2.67,6.84,5.55,13.59,8.3,20.4.87,2.14,1.8,4.25,2.54,6.43.26.74.61,1.57-.36,2.14a44.42,44.42,0,0,1-11.52-.09,3,3,0,0,1-1-2.26c-1.11-8.18-2.31-16.35-3.36-24.54-.61-4.83-1.58-9.62-1.77-14.5A8.68,8.68,0,0,1,145.5,45.86Z"/><path class="cls-8" d="M163.28,89.05c-1.93-6-4.62-11.65-6.95-17.47-3.11-7.77-6.3-15.51-9.44-23.26-.11-.28-.6-.61,0-1,.62.2.85.79,1.18,1.26,2.7,3.89,5.49,7.7,8,11.68,5.55,8.62,11.61,16.89,17.34,25.39a24.8,24.8,0,0,0,2.17,3.37l-.19.23a3.89,3.89,0,0,1-2.34.43c-2.31,0-4.62,0-6.93,0-1.66,0-1.84.19-1.85,1.87,0,4.46,0,8.92,0,13.37a3.41,3.41,0,0,1-.54,2.46.43.43,0,0,1-.57,0,3,3,0,0,1-.51-2.13c0-4.66,0-9.31,0-14A3,3,0,0,1,163.28,89.05Z"/><path class="cls-22" d="M187.78,89.1l0,18.35c-.46,4.43-3.87,6.68-8.28,5.46-1.85-.52-2.88-1.93-3.78-3.49-.16-.52-.47-1-.62-1.5a4.91,4.91,0,0,1,0-2,11.5,11.5,0,0,0,.28-3.36q0-5.73,0-11.46c0-.69-.1-1.41.49-2l11.61-.06Z"/><path class="cls-23" d="M175.89,89.12q0,7.68,0,15.35a2.67,2.67,0,0,1-.24,1.71,2.12,2.12,0,0,1-.72-2c0-4.43,0-8.85,0-13.28a3,3,0,0,1,.51-1.81.33.33,0,0,1,.17,0A1.67,1.67,0,0,1,175.89,89.12Z"/><path class="cls-24" d="M146.85,47.21c-.8-.1-.82-.74-.91-1.34l.91.6Z"/><path class="cls-25" d="M102.65,107.43c1,3.75,3.39,5.43,6.73,5.2a5.8,5.8,0,0,0,4.92-3.44c1.06.28.77,1.14.83,1.86-.14.55,0,1.18-.51,1.61a1.3,1.3,0,0,0-.32,1.26c-1.8,2.83-4.59,2.92-7.42,2.5a4.44,4.44,0,0,1-3.82-3.48c-.2-.83-.5-.29-.79-.3-1.06-1-.13-2.15-.28-3.22A4.28,4.28,0,0,0,102.65,107.43Z"/><path class="cls-26" d="M102,109.42c.68,1,.12,2.15.28,3.21-.57.58.15,1.31-.24,1.9l-.12-.08c-1.9,2.08-4.35,2.32-6.93,2.1l.24-3.91C98.07,112.8,100.61,112.32,102,109.42Z"/><path class="cls-25" d="M176.15,109.18c2,3.68,4.61,4.09,8.06,3,2-.63,3.15-2.57,3.6-4.72-.15.77.6,1.25.65,2-.13,1.18.8,2.43-.23,3.56-.32.36-.26-1.36-.77-.13a6.43,6.43,0,0,1-10.88,1.54c-.13-.16-.29-.31-.43-.46l-.3-1.26c-.6-.52-.37-1.26-.52-1.9C175.39,110.13,175.16,109.34,176.15,109.18Z"/><path class="cls-26" d="M188.23,113c.08-1.19-.42-2.41.23-3.56,1.37,2.92,3.92,3.39,6.76,3.23l.27,3.9c-2.65.19-5.2.07-7-2.3C188.13,113.87,188.68,113.32,188.23,113Z"/><path class="cls-8" d="M145.5,45.86c.8,6.12,1.57,12.23,2.39,18.35Q149.47,76,151.1,87.8c.06.43.18.84.27,1.26A2.59,2.59,0,0,1,152,91c0,3.37,0,6.73,0,10.1a2.54,2.54,0,0,1-.51,1.8c-1.37,0-1.05-1.13-1.07-1.84-.09-2.58,0-5.15,0-7.72V92c0-2.23-.07-2.29-2.23-2.3-2,0-4,0-6,0s-2.12.13-2.13,2.08c0,4.4,0,8.79,0,13.19,0,.78.35,1.92-1,2.1a2.72,2.72,0,0,1-.56-2.11c0-4.57,0-9.13,0-13.69a3,3,0,0,1,.64-2.26c.84-5.83,1.69-11.66,2.51-17.5,1.11-7.85,2.18-15.71,3.27-23.57,0-.37,0-.75.07-1.12Z"/><path class="cls-27" d="M128.4,140.34q.63-11.19,1.25-22.38c0-.69,0-1.38,0-2.08-.57-1.32-1.05-2.63.25-3.83a2.74,2.74,0,0,1,1.72-.09,5.68,5.68,0,0,0,6.47-3,2,2,0,0,1,.85-.93c.86-.1,1,.7,1.34,1.16,1.14,1.42,2.24,2.78,4.34,2.92a5.65,5.65,0,0,0,5.38-2.78,4.9,4.9,0,0,1,.92-1.29.66.66,0,0,1,.48,0,2.57,2.57,0,0,1,1,1.18,5.5,5.5,0,0,0,5.93,2.83,4.07,4.07,0,0,1,1.9,0c1.16.68,1.09,1.8.87,2.84-.15.67-.22,1.36-.4,2l1.29,23.51c-.15,2.86-.34,3-3.21,2.48a6.06,6.06,0,0,0-1.11-.16c-5.62,0-11.24-.73-16.85-.27-3.3.28-6.62,0-9.92.51C128.58,143.31,128.54,143.17,128.4,140.34Z"/><path class="cls-26" d="M176.15,109.18c-.49.44-.16,1-.32,1.55-.24.74,0,1.61-.58,2.26-1.36,3.47-5.51,4.8-9.05,2.94-.51-.27-.89-.83-1.57-.7,0-.33-.07-.67-.11-1-.28-1.38-1.4-2.7-.3-4.18.84-.3,1.28.37,1.81.77a5.47,5.47,0,0,0,8.15-1.25c.39-.56.58-1.31,1.4-1.46A1.79,1.79,0,0,1,176.15,109.18Z"/><path class="cls-28" d="M175.25,113c.19-.76.39-1.51.58-2.26,0,.64,0,1.29,0,1.93Z"/><path class="cls-26" d="M114.64,111.07c-.24-.6.22-1.33-.34-1.88a1.69,1.69,0,0,1,.57-1.08c.82-.11.89.63,1.17,1.08a5.44,5.44,0,0,0,8.46,1.56c.49-.38.92-1,1.67-.73,1.13,1.46.13,2.81-.22,4.2,0,.22-.07.45-.11.67a7.67,7.67,0,0,1-5.51,1.69,5.23,5.23,0,0,1-5.14-3.6C114.7,112.43,114.78,111.72,114.64,111.07Z"/><path class="cls-29" d="M114.64,111.07c.18.64.37,1.27.55,1.91l-.57-.32Z"/><path class="cls-30" d="M164.58,110.07c-.76,1.38.11,2.78-.06,4.16-.73-.42-.6-1.32-1.22-2.14,0,2.19-2.12,3-2.54,4.75,0-1,0-2-.08-3-.05-.54.13-1.22-.57-1.53-.05-.11-.1-.24,0-.31a49.06,49.06,0,0,0,3.35-4.5l.17,0A2.92,2.92,0,0,1,164.58,110.07Z"/><path class="cls-30" d="M126,114.22c-.11-1.38.67-2.78-.08-4.15a3,3,0,0,1,1-2.61l.19,0c.93,1.72,2.49,3,3.3,4.82-1.23,1-.26,2.45-.66,3.62a6.56,6.56,0,0,1-2.63-3.59C126.49,112.87,126.68,113.81,126,114.22Z"/><path class="cls-22" d="M130.34,112.26c-1.57-1.29-3.1-2.59-3.3-4.82,0-5.49,0-11,0-16.48,0-.63.06-1.27.1-1.91h11.91l.09,18a.72.72,0,0,1-.07,1C137.35,112.37,134.84,113.25,130.34,112.26Z"/><path class="cls-9" d="M126.85,107.46a3.9,3.9,0,0,1-1,2.61c-2.5,4-9.09,3.28-10.68-1.42a2.74,2.74,0,0,0-.32-.54l-.05-1.93q0-7.68.08-15.37c0-.58.09-1.15.14-1.73,3.38,0,6.77,0,10.16,0,1.25,0,1.67.33,1.66,1.63C126.8,96.28,126.84,101.87,126.85,107.46Z"/><path class="cls-22" d="M163.42,107.45c-.22,2.21-1.74,3.53-3.31,4.81-.58.1-1.16.26-1.74.31-3.41.27-5.29-.51-7-4.45-.88-1.5-.34-3.13-.39-4.7a1.34,1.34,0,0,1,.29-.52q.06-6.91.13-13.84h11.91q0,7.92.1,15.84C163.39,105.74,163.41,106.59,163.42,107.45Z"/><path class="cls-9" d="M164.58,110.07a4,4,0,0,1-1-2.6c0-5.6.06-11.19,0-16.78,0-1.29.4-1.66,1.66-1.63,3.38.07,6.77,0,10.16,0,.32,3.4.07,6.81.14,10.22,0,2.29,0,4.59.08,6.88,0,.64,0,1.28,0,1.93-1.25,2.94-3.2,4.76-6.67,4.52A5.63,5.63,0,0,1,164.58,110.07Z"/><path class="cls-9" d="M151.24,102.9l0,.4c-.29,1.61.15,3.24-.23,4.84a5.36,5.36,0,0,1-3.87,4.23c-2.09.55-4.29.69-6-1.29a13.74,13.74,0,0,1-2.06-3c0-.34,0-.68.07-1,.39-.53.22-1.15.22-1.72,0-4.89.05-9.78,0-14.66,0-1.3.42-1.67,1.67-1.63,2.84.08,5.69.06,8.53,0,1.13,0,1.5.35,1.48,1.48-.05,3.54,0,7.09,0,10.63A2.94,2.94,0,0,0,151.24,102.9Z"/><path class="cls-31" d="M151.05,108.14c.11-1.61-.31-3.25.23-4.84l.06,4.82Z"/></g></g></g></svg>