<svg xmlns="http://www.w3.org/2000/svg" viewBox="0 0 290.45 212.69"><defs><style>.cls-1{fill:#1d82c0;}.cls-2{fill:#e17b3e;}.cls-3{fill:#575655;}.cls-4{fill:#e7e5e3;}.cls-5{fill:#efedeb;}.cls-6{fill:#9a9897;}.cls-7{fill:#989695;}.cls-8{fill:#d0cecc;}.cls-9{fill:#615f5f;}.cls-10{fill:#979595;}.cls-11{fill:#676565;}.cls-12{fill:#706e6e;}.cls-13{fill:#686666;}.cls-14{fill:#636161;}.cls-15{fill:#696767;}.cls-16{fill:#656363;}.cls-17{fill:#727070;}.cls-18{fill:#dad8d6;}.cls-19{fill:#6b6969;}.cls-20{fill:#626060;}.cls-21{fill:#dcdad9;}.cls-22{fill:#716f6e;}.cls-23{fill:#5e5c5c;}.cls-24{fill:#716f6f;}.cls-25{fill:#5c5a5a;}.cls-26{fill:#c9c7c6;}.cls-27{fill:#afadac;}.cls-28{fill:#5f5d5d;}.cls-29{fill:#797777;}.cls-30{fill:#c8c6c5;}.cls-31{fill:#c6c4c3;}.cls-32{fill:#45b29c;}.cls-33{fill:#238ab3;}.cls-34{fill:#bc3e25;}.cls-35{fill:#eec74a;}.cls-36{fill:#a09d9c;}</style></defs><title>Recurso 13</title><g id="Capa_2" data-name="Capa 2"><g id="Pagina_Movil" data-name="Pagina Movil"><g id="proyecto_6" data-name="proyecto 6"><path class="cls-1" d="M145.06,212.66q-72.53,0-145.06,0Q0,106.34,0,0,145.23,0,290.45,0q-.06,106.35,0,212.69Q217.76,212.63,145.06,212.66Z"/><path class="cls-2" d="M192,37.49a74.21,74.21,0,0,1,15.94,14.22A81.29,81.29,0,0,1,225.38,85.8a84.41,84.41,0,0,1-2.62,49.47,85.54,85.54,0,0,1-14.32,24.84c-9.9,12.27-22.58,20.34-37.33,25.59a76.5,76.5,0,0,1-48.84,1.06c-15-4.51-28.15-12.44-38.5-24.41a83.63,83.63,0,0,1-15.06-24.23,84.65,84.65,0,0,1,5.4-74.47C80,53.21,88.21,45,97.73,37.82c22.59-17,55.81-20.07,82.25-7.61a7.84,7.84,0,0,1,.83.49c.21.74-.35,1.07-.81,1.42-3.6,2.8-4.85,6.59-5,11-.15,5,1.07,9.8,1.79,14.68a32.75,32.75,0,0,1,.11,5.94,2.74,2.74,0,0,1-.27,1.09c-.42.93-.78,2-1.94,2.17s-1.69-.89-2.26-1.71c-1.41-2-2.28-4.37-3.9-6.28a14.05,14.05,0,0,0-7.24-4.54,17.16,17.16,0,0,0-6.73-.3,11.51,11.51,0,0,0-9.9,8.1c-2.11,5.83-1.88,11.81-.77,17.8.21,1.16.45,2.31.68,3.47.11.53.27,1.06-.14,1.54a19.27,19.27,0,0,1-2.77,1.37c-1.75.34-3.41-.47-5.12-.43-8.11.21-16.2-.44-24.31-.38a21.32,21.32,0,0,0-11.82,3.64A4.72,4.72,0,0,0,98.74,91a9.82,9.82,0,0,1-2.19,2.53c-3.42,3.22-5.35,7.28-6.77,11.66a11.58,11.58,0,0,0-.26,2.18c.1,4.66-.3,9.33,1.27,13.88a23.83,23.83,0,0,0,11,13.16,21.2,21.2,0,0,0,15.84,2.54,26.15,26.15,0,0,0,9.6-4.77,4.61,4.61,0,0,1,2.81-1q16,0,31.94,0a5.42,5.42,0,0,1,3.39,1.27,24.34,24.34,0,0,0,8.12,4.19c7.54,2.15,14.29.16,20.25-4.55a22,22,0,0,0,8.74-18,23.32,23.32,0,0,0-.15-4.18c.94-7.52-3.14-12.75-8-17.63a3.86,3.86,0,0,1-1-1.25,3.49,3.49,0,0,0-1.25-1.44c-3.47-2.23-7.09-3.87-11.37-3.9-8.47-.06-16.93.59-25.4.38-1.65,0-3.25.74-4.93.44a25.29,25.29,0,0,0-2.84-1.22c-.91-.89-1-2.12-1.23-3.25-1.06-5-1.75-9.94-1-15a19.28,19.28,0,0,1,1.79-5.5c2.15-4.43,6.45-5.67,10.61-5.56a11.61,11.61,0,0,1,10.57,6.46,48.44,48.44,0,0,0,3,4.8c2,2.8,4.36,2.83,6.32,0a10.23,10.23,0,0,0,1.48-6.79c-.29-4.08-1.48-8-1.91-12.08-.39-3.79-.66-7.62,1.09-11.23a7.3,7.3,0,0,1,3.05-3.42,3.75,3.75,0,0,1,3.81-.09C187.45,34.9,189.83,36,192,37.49Z"/><path class="cls-3" d="M192,37.49c-1.4-.06-2.41-1.05-3.64-1.53-.9-.35-1.71-.91-2.58-1.33-2.79-1.35-5.26-.37-6.6,2.45-1.64,3.46-1.6,7.07-1.2,10.73.45,4.06,1.62,8,2,12.07a15.43,15.43,0,0,1-.49,5.58,7.83,7.83,0,0,1-1.61,2.94C175.58,71,173,71,171,68.2a62.83,62.83,0,0,1-3.74-6c-3.35-6-13.06-7.5-17.84-2.53-2.62,2.72-3.28,6.35-3.47,10a46.19,46.19,0,0,0,2,15.27c.72.94.35,1.67-.43,2.35a2,2,0,0,1-2.64.21c-.89-.61-1.45-1.46-.78-2.6A50.55,50.55,0,0,1,142.32,70a24.54,24.54,0,0,1,2.11-9.38c3.26-6.83,11.74-9.53,19.28-6.26a15.9,15.9,0,0,1,7.81,7.6c.7,1.32,1.49,2.61,2.25,3.91.42.71.89.65,1.37,0a5.91,5.91,0,0,0,1.1-3.64c.15-3.91-.9-7.67-1.5-11.48A37.37,37.37,0,0,1,174.2,42c.38-4.82,2.18-8.83,6.61-11.29a66.13,66.13,0,0,1,10.54,5.92A1.45,1.45,0,0,1,192,37.49Z"/><path class="cls-4" d="M203.29,109.73c.71,8.16-1.11,15.48-7.13,21.39A30.45,30.45,0,0,1,189,136c-5.15,2.76-10.5,2.85-15.91,1.41a23.28,23.28,0,0,1-8.44-4.49,4.2,4.2,0,0,0-2.79-.93q-15.72.06-31.44,0a4.44,4.44,0,0,0-2.93,1c-6.59,5.09-13.9,6.74-21.93,4.19a24.76,24.76,0,0,1-16.77-23.76c.07-2.08-.35-4.19.28-6.25.89-1.87,1.12-4,2.21-5.79C95.62,94.19,101.74,89.68,110.2,89c9.5-.82,19-.52,28.53-.26,12.31.34,24.6-.43,36.91-.12,4.64.12,9.25.2,13.57,2.19,7.94,3.68,13.07,9.49,13.93,18.51A1.2,1.2,0,0,0,203.29,109.73Z"/><path class="cls-5" d="M203.29,109.73c-.87-2.31-1.32-4.74-2.48-7-4.07-7.83-10.49-12.26-19.22-13-9.48-.83-19-.38-28.5-.24-4.88.08-9.75.08-14.63,0-8.16-.2-16.33-.11-24.5,0-9.81.08-17.37,4.2-22.32,12.79a23.5,23.5,0,0,0-2.41,6.64l-.16-1.73c.67-6.71,3.92-12,9.09-16.15,3.88-2.28,7.73-4.72,12.46-4.6,8.89.24,17.74-1.15,26.63-.69,1.34.07,2.69,0,4,0a9.36,9.36,0,0,1,2.79-.83l.18.43c.37.92.72,2,1.95,1.86s1.63-1.13,1.72-2.25a6.24,6.24,0,0,1,2.89.77c5.2.06,10.45-.37,15.61.13,5.52.53,11,.37,16.53.62a15,15,0,0,1,5.26,1.43A36.09,36.09,0,0,1,194,91C200,95.77,203.29,101.93,203.29,109.73Z"/><path class="cls-6" d="M141.28,85.69c-5.21,0-10.41,0-15.62.06a2.36,2.36,0,0,0-2.28.85c-.42.6-1.13.51-1.77.51-2.9,0-5.81.12-8.7,0a20.49,20.49,0,0,0-12.2,3.42,2.49,2.49,0,0,1-2.55.47c-.47-.68-.06-1.07.46-1.44,3.91-2.79,8.08-4.84,13-4.69a42.29,42.29,0,0,0,5.63,0c4-.42,7.9,1,11.92.84S137.26,85.66,141.28,85.69Z"/><path class="cls-6" d="M194,91a2.21,2.21,0,0,1-2.27-.33,20.69,20.69,0,0,0-12.81-3.55c-2.3.14-4.62,0-6.93,0-1.38,0-2.79.21-3.85-1.09-.4-.48-1.12-.25-1.7-.26l-15.62-.09c5,0,10.15.38,15.14-.19s10-.56,15-.64c4.81-.07,8.81,2,12.59,4.67C194.05,89.87,194.45,90.29,194,91Z"/><path class="cls-7" d="M200.77,114a21,21,0,1,1-42,.34c0-12.1,9.07-21.46,20.84-21.47A20.76,20.76,0,0,1,200.77,114Z"/><path class="cls-8" d="M100.38,113.57A12.42,12.42,0,0,1,113,101a12.75,12.75,0,1,1-12.59,12.56Z"/><path class="cls-9" d="M147.48,99.26c-3.43,0-6.86,0-10.29,0-.58,0-1.41.27-1.37-.82s.85-.62,1.33-.62q10.31,0,20.59,0c.47,0,1.27-.43,1.35.59s-.73.85-1.31.85C154.35,99.27,150.91,99.26,147.48,99.26Z"/><path class="cls-7" d="M135.86,118.4a17.52,17.52,0,0,1,3.2-3.18,1.79,1.79,0,0,1,1.31-.82c.69-.1,1.09.37,1.41.85a1.14,1.14,0,0,1-.27,1.57c-1.48,1.44-2.85,3-4.43,4.34a1.77,1.77,0,0,1-1.67-.54A1.85,1.85,0,0,1,135.86,118.4Z"/><path class="cls-10" d="M148.81,121.29l-1.35,0c-.38-.57-.88-1.11-.74-1.89a22.78,22.78,0,0,1,4.39-4.65,1.3,1.3,0,0,1,2,.13A1.38,1.38,0,0,1,153,117C151.57,118.45,150.06,119.74,148.81,121.29Z"/><path class="cls-11" d="M148.81,121.29c.53-1.5,2-2.22,2.9-3.36.34-.42.76-.76,1.12-1.16a1.14,1.14,0,0,0,0-1.72,1.1,1.1,0,0,0-1.71,0c-1.45,1.43-2.86,2.9-4.28,4.36-.23,0-.22-.21-.28-.35a29.61,29.61,0,0,1,4.43-4.59,1.52,1.52,0,0,1,2.29.18,1.54,1.54,0,0,1,0,2.3A38.82,38.82,0,0,1,148.81,121.29Z"/><path class="cls-12" d="M151.35,96.17c-.78.18-1.63.53-2.06-.52a2.4,2.4,0,0,1,.62-2.64c.52-.54,1.16-.69,1.89.2-1.29,0-1.89.56-1.91,1.67,0,.33.11.7.48.7s.44-.37.28-.68-.09-.61.33-.66.73.11.64.62S151.85,95.82,151.35,96.17Z"/><path class="cls-13" d="M147.85,96.31c-1-.3-.84-1-1.18-1.26-.49.21-.15,1-.91,1.14a8.8,8.8,0,0,1,.32-2.91c.13-.92.81-.7,1.35-.57A.82.82,0,0,1,148,94,2.17,2.17,0,0,0,147.85,96.31Z"/><path class="cls-14" d="M151.92,95.15c.57-.81.54-2.7,1.56-2.33s.34,2.12.45,3.79c-.9-1.53-1.57-.7-2.27-.42C151.34,95.74,151.65,95.45,151.92,95.15Z"/><path class="cls-15" d="M137.06,121c1.18-1.17,2.36-2.34,3.52-3.53.62-.63,1.54-1.26.77-2.29s-1.53-.28-2.29,0a1.42,1.42,0,0,1,2.41-.74,1.55,1.55,0,0,1,.23,2.6,38,38,0,0,1-4.15,4A.3.3,0,0,1,137.06,121Z"/><path class="cls-16" d="M138.8,92.64c.75-.07.6.43.51.84a4.61,4.61,0,0,0-.1,2.33c1.26-.86.62-2.27,1.34-3.08.38,1.44.21,3-.46,3.38a1.18,1.18,0,0,1-1.71-.24A2.33,2.33,0,0,1,138.8,92.64Z"/><path class="cls-11" d="M145.56,96.07c-1.07.15-1.9.43-1.95-.13a7.25,7.25,0,0,1,.43-3c.23-.64,1-.33,2-.08-1.38.38-1.68.9-.91,1.66C144.05,95,143.87,95.47,145.56,96.07Z"/><path class="cls-17" d="M137.83,95.87a1.5,1.5,0,0,1-2.2,0c1.82-.11,1.63-.63.77-1.67-.66-.81.17-1.55,1.7-1.54A8.81,8.81,0,0,1,137.83,95.87Z"/><path class="cls-11" d="M159.8,96.09c-.71.15-1.45.42-1.61-.13a5.13,5.13,0,0,1,.4-2.95c.23-.72.94-.32,1.62-.3C159.15,93.58,158.89,95.42,159.8,96.09Z"/><path class="cls-18" d="M133.62,96.57a2.18,2.18,0,0,1-1.39.28,1.37,1.37,0,0,1-1.92-.25,1.38,1.38,0,0,1-.28-1.93,2.11,2.11,0,0,1,.33-1.4,10.73,10.73,0,0,1,2,1.64l0,0C132.77,95.43,133.43,95.82,133.62,96.57Z"/><path class="cls-19" d="M141.44,96.28c-.64-1.23-.05-2.24.13-3.27a.53.53,0,0,1,.77-.35c.39.17,1,.14,1,.81,0,.42.11.89-.41,1.09A2,2,0,0,0,141.44,96.28Z"/><path class="cls-9" d="M154.64,94.58a.92.92,0,0,1,0-.16c.17-.61-.09-1.66.66-1.69,1,0,.35,1.07.64,1.6.06.11.2.17.3.25.3,0,.43.08.32.39-.2.51-.07,1.28-1,1.2a2,2,0,0,1-.62-.82A5.12,5.12,0,0,0,154.64,94.58Z"/><path class="cls-20" d="M130.37,96.83a1.26,1.26,0,0,1,1.86,0c.18.85,0,1.58-1,1.55s-1.12-.78-.84-1.61Z"/><path class="cls-9" d="M130.37,96.83l0,0a2,2,0,0,0-.46-.12c-.77,0-1.5-.14-1.44-1.07s.76-1.06,1.54-.93C130.74,95.3,130.31,96.1,130.37,96.83Z"/><path class="cls-13" d="M156.55,95l-.32-.39c.47-.63.29-2.13,1.33-1.81.77.24.09,1.49,0,2.28,0,.38.11.9-.44,1.1C156.5,96,157.09,95.19,156.55,95Z"/><path class="cls-14" d="M132.34,94.91c-1-.13-2.42.24-2-1.64C132,92.61,132.21,92.82,132.34,94.91Z"/><path class="cls-20" d="M133.62,96.57c-1.31.1-2.06-.23-1.3-1.7a1,1,0,0,1,1.5.16A1.14,1.14,0,0,1,133.62,96.57Z"/><path class="cls-21" d="M137.83,95.87a4.5,4.5,0,0,0,0-.63,9,9,0,0,1,.24-2.6h.7a13.5,13.5,0,0,0-.42,3.23Z"/><path class="cls-22" d="M135.86,118.4a4.62,4.62,0,0,0-.25,2.27q-.13.21-.33,0C134.62,119.72,134.6,118.9,135.86,118.4Z"/><path class="cls-23" d="M146.6,119.11l.28.35c.19.62.39,1.24.58,1.85A1.61,1.61,0,0,1,146.6,119.11Z"/><path class="cls-24" d="M135.28,120.7l.33,0,1.45.32.49.06A1.45,1.45,0,0,1,135.28,120.7Z"/><path class="cls-25" d="M154.64,94.58l.58.59c0,.37,0,.75-.34,1C153.81,95.79,154.76,95.1,154.64,94.58Z"/><path class="cls-26" d="M154.88,96.17c.06-.35-.07-.77.34-1,.41.23.28.65.34,1Z"/><path class="cls-27" d="M151.92,95.15l-.26,1-.16,0-.15,0a2,2,0,0,1,.27-1.31Z"/><path class="cls-4" d="M169,119.73a5.53,5.53,0,0,1-5.48-3.85,5.63,5.63,0,0,1,2-6.28q5.79-4.23,11.6-8.43a5.22,5.22,0,0,1,7.49,1.24,5.41,5.41,0,0,1-1.21,7.52c-3.79,3.08-7.76,5.9-11.69,8.79A4.17,4.17,0,0,1,169,119.73Z"/><path class="cls-4" d="M196.24,113.6c0,2.43-.53,3.74-2,4.76-4,2.85-8,5.8-12,8.69a5.38,5.38,0,0,1-6.34-8.67c1.81-1.34,3.66-2.63,5.46-4,2-1.51,4-3,5.94-4.65a5.07,5.07,0,0,1,6-.71A5.19,5.19,0,0,1,196.24,113.6Z"/><path class="cls-28" d="M108.13,110.42a1.5,1.5,0,0,0,.9-1.55c0-.75,0-1.5,0-2.25-.11-1.42.45-2.09,1.93-2s2.78,0,4.17,0c1.21,0,1.78.52,1.72,1.75,0,.85,0,1.71,0,2.56a1.4,1.4,0,0,0,1,1.5.34.34,0,0,1-.06.47c-1.16.59-1.7,0-1.92-1.06a2.28,2.28,0,0,1-.06-.64c.23-3-1.9-3.13-4.31-2.68-.78.14-1.08.81-1.18,1.56-.08.58,0,1.18-.14,1.76-.21,1.11-.75,1.65-1.91,1.06A.34.34,0,0,1,108.13,110.42Z"/><path class="cls-20" d="M117.46,118.71c-1.1,1-.54,2.32-.6,3.49-.09,2-.22,2.21-2.21,2.23h-4c-1.12,0-1.57-.55-1.64-1.69-.08-1.34.51-2.79-.54-4,.07-.66.52-.63,1-.54.92.55.67,1.5.74,2.32.17,1.87.65,2.29,2.73,2.3s2.61-.43,2.79-2.25c.07-.82-.19-1.76.69-2.35C116.89,118.09,117.34,118.05,117.46,118.71Z"/><path class="cls-28" d="M122.05,110.66a1.35,1.35,0,0,1,.59,1.39v5c0,.67-.06,1.3-.9,1.46a.61.61,0,0,1-.94-.29c.16-2.41-.12-4.84.3-7.25A.65.65,0,0,1,122.05,110.66Z"/><path class="cls-20" d="M104.13,118.49a1,1,0,0,1-.87-1q0-3.06,0-6.12a.88.88,0,0,1,.56-.74.81.81,0,0,1,1,.25c.39,2.43.08,4.88.24,7.31A.65.65,0,0,1,104.13,118.49Z"/><path class="cls-19" d="M104.13,118.49l.75-.32c1.38-1.26,3.76-1.12,4.5.28l-.92.28C107,118.5,105.56,118.86,104.13,118.49Z"/><path class="cls-19" d="M121,118.17l.7.31c-1.41.39-2.86,0-4.28.23l-.92-.26C117.27,117.05,119.65,116.91,121,118.17Z"/><path class="cls-29" d="M122.05,110.66l-.71.37a2.81,2.81,0,0,1-3.54-.32l0-.29C119.21,110.47,120.66,110.08,122.05,110.66Z"/><path class="cls-29" d="M104.57,111l-.73-.39c1.41-.54,2.86-.17,4.29-.22a2.83,2.83,0,0,1,0,.29C107,111.85,105.82,111.63,104.57,111Z"/><path class="cls-30" d="M146.9,94.18a.31.31,0,0,1-.24-.46c.07-.16.23-.37.38-.4a.32.32,0,0,1,.36.38A.48.48,0,0,1,146.9,94.18Z"/><path class="cls-31" d="M142.44,94.2c-.27,0-.44-.09-.38-.35s.15-.42.29-.47.36.14.37.36A.4.4,0,0,1,142.44,94.2Z"/><path class="cls-32" d="M168.7,110a4.16,4.16,0,1,1-4.06,4.24A4,4,0,0,1,168.7,110Z"/><path class="cls-33" d="M180.23,101.52a4,4,0,0,1,.1,8,4,4,0,1,1-.1-8Z"/><path class="cls-34" d="M190.91,118.17a4,4,0,0,1-4-4,4.14,4.14,0,0,1,4.13-4.41,4.06,4.06,0,0,1,3.92,4.42A3.93,3.93,0,0,1,190.91,118.17Z"/><path class="cls-35" d="M179.19,126.55a4,4,0,0,1-3.94-4,4.1,4.1,0,0,1,4.06-4,4,4,0,0,1,4,4.18A3.87,3.87,0,0,1,179.19,126.55Z"/><path class="cls-7" d="M104.57,111c1.15-.48,2.36-.22,3.54-.32,1,.14,1.27-.37,1.32-1.3.19-3.87.21-3.87,4.06-3.86.48,0,1,0,1.45,0,1.07,0,1.55.57,1.55,1.61,0,.75,0,1.5,0,2.25,0,.94.3,1.44,1.3,1.3a12.74,12.74,0,0,1,3.54.32c.42,2.4.91,4.8-.3,7.14-1.5.07-3-.38-4.5.28,0,1.12-.05,2.24-.05,3.36s-.48,1.72-1.62,1.73H111c-1.13,0-1.62-.6-1.6-1.73s0-2.24,0-3.36c-1.47-.66-3-.22-4.5-.28-.2-.24-.55-.47-.56-.72C104.21,115.3,103.83,113.14,104.57,111Z"/><path class="cls-36" d="M112.84,117.42a2.87,2.87,0,0,1-2.7-2.84,2.92,2.92,0,0,1,2.61-2.57,2.56,2.56,0,0,1,2.77,2.64A2.63,2.63,0,0,1,112.84,117.42Z"/></g></g></g></svg>