<svg xmlns="http://www.w3.org/2000/svg" viewBox="0 0 290.54 208.23"><defs><style>.cls-1{fill:#cbb1a2;}.cls-2{fill:#334d5c;}.cls-3{fill:#eec74a;}.cls-4{fill:#d6b341;}.cls-5{fill:#4e6f7c;}.cls-6{fill:#4e6f7b;}.cls-7{fill:#152730;}.cls-8{fill:#edc74a;}.cls-9{fill:#99c9e1;}.cls-10{fill:#99c8e0;}.cls-11{fill:#98c8e0;}.cls-12{fill:#1f93af;}.cls-13{fill:#95c4db;}.cls-14{fill:#1c3d49;}.cls-15{fill:#203843;}.cls-16{fill:#9a7713;}.cls-17{fill:#fbf2d8;}.cls-18{fill:#c59f36;}.cls-19{fill:#9c7814;}.cls-20{fill:#fbf2d7;}.cls-21{fill:#1f95b1;}</style></defs><title>Recurso 7</title><g id="Capa_2" data-name="Capa 2"><g id="Pagina_Movil" data-name="Pagina Movil"><g id="proyecto_1" data-name="proyecto 1"><path class="cls-1" d="M145.27,0Q217.9,0,290.54,0q0,104.12,0,208.23-145.28,0-290.54,0Q0,104.12,0,0,72.63.06,145.27,0Z"/><path class="cls-2" d="M145.11,22.13c44.75-.29,83.6,36,82.65,83.83-.91,45.11-38.47,81.2-84.57,80.16a82,82,0,0,1,1.92-164Z"/><path class="cls-3" d="M153.11,89.06c6.12.12,12.25-.33,18.35.62a48,48,0,0,1,22.86,9.54,24.7,24.7,0,0,1,6.89,8c.91,2.93,1,5.81-.68,8.53-.54.67-1.33.59-2.06.6-2.66.05-5.32,0-8,0-.42,0-1.06-.3-1.2.46a6.52,6.52,0,0,0,3,.56c1.81,0,3.63,0,5.44,0,1.45,0,1.91.78,1.31,2.11a15.32,15.32,0,0,1-3.41,4.6c-7.26,7.07-16.05,10.87-26,12.14a75.43,75.43,0,0,1-9.73.61c-16.48,0-33,0-49.46,0a26.7,26.7,0,0,1-17.09-5.78,27.62,27.62,0,0,1-10.8-19.6,19.28,19.28,0,0,1,.81-6.41c4-8.24,10.5-13.22,19.29-15.35,4.31-1,8.71-.56,13.07-.65a2.24,2.24,0,0,1,2-.72q16.59-.06,33.2,0A3.83,3.83,0,0,1,153.11,89.06Z"/><path class="cls-4" d="M83.3,105.07c-.4,4.55-.23,9.05,1.52,13.33,4,9.87,11.24,15.8,21.86,17.45a36.8,36.8,0,0,0,5.74.28h48.63a52.93,52.93,0,0,0,22.81-4.7A33.74,33.74,0,0,0,198,119.85c.34-.51,1-1.08.56-1.7s-1.09-.25-1.66-.25c-2.4,0-4.8,0-7.2,0a3,3,0,0,1-1.71-.27c.44-.94,1.33-.74,2.08-.76,3.12,0,6.23,0,9.35,0a4.25,4.25,0,0,0,1.72-.17c-.22-.52-.88-.51-1-1a23.94,23.94,0,0,0,1-8.41c3.72,6.5,3.66,13.09.36,19.7-3.09,6.16-8.42,9.94-14.28,13a46.37,46.37,0,0,1-21.67,5.48c-17.65.11-35.31,0-53,0-4,0-8,.13-11.88-1a28.3,28.3,0,0,1-18.13-38.13A12.6,12.6,0,0,1,83.3,105.07Z"/><path class="cls-3" d="M115.93,69.77A1.92,1.92,0,0,1,118,68.2h25.23a2.09,2.09,0,0,1,2.13,1.38c2.06,5.52,4.1,11.06,6.15,16.58,0,.8-.6.91-1.2,1a14.28,14.28,0,0,1-2.07.08q-14.53,0-29.06,0h-1.12c-2.1-.08-2.27-.25-2.27-2.31,0-4.52,0-9,0-13.57A3.83,3.83,0,0,1,115.93,69.77Z"/><path class="cls-5" d="M89.39,55.94a8.1,8.1,0,0,1,8.21-8.19c4,0,8.12,2.69,8.33,8.34.16,4.33-4,8.22-8.37,8.21A8.3,8.3,0,0,1,89.39,55.94Z"/><path class="cls-4" d="M115.93,69.77c0,5,.1,9.91,0,14.86,0,1.49.45,1.91,1.91,1.9,10.61,0,21.21,0,31.81,0a2.53,2.53,0,0,0,1.84-.34c1.15.63.86,2,1.58,2.9H115.66c0-5.11,0-10.22.1-15.33A15.54,15.54,0,0,1,115.93,69.77Z"/><path class="cls-6" d="M104.8,66.64A5,5,0,0,1,110,71.56a5.11,5.11,0,0,1-5.35,5,5.24,5.24,0,0,1-5-4.92A5.05,5.05,0,0,1,104.8,66.64Z"/><path class="cls-7" d="M119.19,51c1,0,2,0,3,0a6.11,6.11,0,0,1,6.21,6.2c.1,3.14,0,6.28,0,9.42,0,1.08-.48,1.34-1.46,1.36-2.68.06-2.68.1-2.69-2.52s0-5.22,0-7.83c0-1.89-.62-2.46-2.5-2.51-.74,0-1.49,0-2.23,0-.58,0-.19-.31-.09-.5a2.9,2.9,0,0,0-.47-3.19A.49.49,0,0,1,119.19,51Z"/><path class="cls-8" d="M206.65,119.12v14.95c0,.3.07.71-.35.76a1.06,1.06,0,0,1-.68-.34,4.42,4.42,0,0,1-1.13-2.09,18.35,18.35,0,0,1,0-10.71A3.44,3.44,0,0,1,206.65,119.12Z"/><path class="cls-8" d="M206.65,106.57c0,2.24,0,4.47,0,6.7,0,.34.17.82-.25,1s-.76-.28-1-.59a6.48,6.48,0,0,1-1.08-2.46,18.86,18.86,0,0,1,.07-9.61,8.45,8.45,0,0,1,.72-1.76c.27-.49.62-1.2,1.25-1s.28.92.29,1.4C206.67,102.32,206.66,104.45,206.65,106.57Z"/><path class="cls-9" d="M218.41,122.51a3.07,3.07,0,0,1-3-3.1,3.13,3.13,0,0,1,3.06-3,3.22,3.22,0,0,1,3.09,3.21A3.13,3.13,0,0,1,218.41,122.51Z"/><path class="cls-10" d="M213.67,116.3a12.5,12.5,0,0,1-.74-1.2,2.31,2.31,0,1,1,2,1.33,10.85,10.85,0,0,1-1.26-.16Z"/><path class="cls-11" d="M213.63,116.27c.11.29.23.58.33.87a1.84,1.84,0,0,1-.78,2.36,1.7,1.7,0,0,1-2.2-.2,1.8,1.8,0,0,1-.39-2.33,1.78,1.78,0,0,1,2.17-.91l.91.24Z"/><path class="cls-12" d="M119.18,51.22c1.95.94,2.06,2.12.32,3.35-.71-.16-1.59.16-2-.76a1.2,1.2,0,0,1-.25-1.57l.35-.42C118,51.26,118.46,50.91,119.18,51.22Z"/><path class="cls-13" d="M210.38,115.58c-.14.78-.58,1.3-1.37,1.26a1.17,1.17,0,0,1-1.17-1.38,1.09,1.09,0,0,1,1.22-1.14C209.91,114.31,210.25,114.83,210.38,115.58Z"/><path class="cls-14" d="M119.18,51.22a3.51,3.51,0,0,0-1.59.6c.2-.91.9-.88,1.6-.85A2.09,2.09,0,0,0,119.18,51.22Z"/><path class="cls-15" d="M117.24,52.24c.08.52.16,1,.25,1.57C116.68,53.4,116.85,52.84,117.24,52.24Z"/><path class="cls-16" d="M104.77,125.55c-2.55-2.3-4.26-5-4.18-8.59a10.15,10.15,0,0,1,6.58-9.32,10.64,10.64,0,0,1,11.56,2.74c.48.57.93,1.17,1.39,1.75a10.11,10.11,0,0,1-1.86,13.27A10.6,10.6,0,0,1,104.77,125.55Z"/><path class="cls-16" d="M163.37,125.89c-3.87-3-5.64-6.78-4.27-11.62a10.16,10.16,0,0,1,16.84-4.43c.54.51,1,1.1,1.52,1.64A10.14,10.14,0,0,1,172,127.55,9.78,9.78,0,0,1,163.37,125.89Z"/><path class="cls-16" d="M134.24,125.87c-4.5-3.84-5.79-8.46-3.65-13A10.13,10.13,0,0,1,147,110c.56.56,1.06,1.18,1.6,1.77,2.58,4,2.7,7.93-.11,11.89a10.07,10.07,0,0,1-12.8,3.1A8.19,8.19,0,0,1,134.24,125.87Z"/><path class="cls-17" d="M87.2,116.77c.68-12.26,9.21-21.5,21-23.06,1-.13,1.91-.12,2.87-.16s1.82.4,1.86,1.51-.76,1.67-1.88,1.69a19.1,19.1,0,0,0-7.48,1.42C95.3,101.72,91,108.06,90.41,117c-.08,1.1-.37,2-1.64,1.89s-1.56-.94-1.57-2C87.19,116.68,87.2,116.52,87.2,116.77Z"/><path class="cls-18" d="M163.37,125.89a11.26,11.26,0,0,0,8,1.08,10.09,10.09,0,0,0,6.79-13.74c-.24-.58-.5-1.16-.75-1.75,2.95,2.8,3.49,6.25,2.46,10a10.08,10.08,0,0,1-16.55,4.44Z"/><path class="cls-18" d="M134.24,125.87a11.56,11.56,0,0,0,7.75,1.2,10.16,10.16,0,0,0,7.23-13.79c-.21-.48-.39-1-.58-1.48a10.06,10.06,0,0,1-.4,14C144.34,129.56,137.86,129.6,134.24,125.87Z"/><path class="cls-18" d="M104.77,125.55a11.63,11.63,0,0,0,9.22,1.33,10.17,10.17,0,0,0,6.56-13.55c-.15-.4-.29-.8-.43-1.2a10,10,0,0,1-5.74,16.28C110.76,129.06,107.43,128.35,104.77,125.55Z"/><path class="cls-19" d="M200.19,115.63l1.11,0c.77,0,1.64.07,1.63,1.07s-.91.85-1.58.85c-2.54,0-5.08,0-7.62,0l-5.72.05c-.5-.32-.81-.74-.51-1.33s.95-.6,1.54-.6Z"/><path class="cls-16" d="M136.61,78.82h9.75c.76,0,1.61,0,1.66,1s-.79,1.22-1.64,1.22H126.87c-.85,0-1.7,0-1.65-1.21s.87-1,1.63-1Z"/><path class="cls-20" d="M117.54,78.19c0-2,0-4,0-6.07a2.25,2.25,0,0,1,1.93-2.38c.38-.08.79-.06.9.4s-.18.58-.52.67c-1.22.31-1.29,1.26-1.29,2.26,0,3.73,0,7.45,0,11.18,0,.47.27,1.28-.5,1.28s-.52-.79-.53-1.28c0-2,0-4,0-6.06Z"/><path class="cls-21" d="M111,109.2a8,8,0,1,1,.11,15.91c-4.73,0-8.28-3.31-8.31-7.81C102.8,112.61,106.23,109.23,111,109.2Z"/><path class="cls-21" d="M176.82,117.2a8,8,0,1,1-7.86-8A7.95,7.95,0,0,1,176.82,117.2Z"/><path class="cls-21" d="M147.72,117.21a7.81,7.81,0,0,1-7.89,7.9,8,8,0,1,1-.06-15.91A7.84,7.84,0,0,1,147.72,117.21Z"/></g></g></g></svg>