<svg xmlns="http://www.w3.org/2000/svg" viewBox="0 0 290.45 212.69"><defs><style>.cls-1{fill:#1037b4;}.cls-2{fill:#eec74a;}.cls-3{fill:#797a7a;}.cls-4{fill:#626262;}.cls-5{fill:#939595;}.cls-6{fill:#787979;}.cls-7{fill:#4b4b4b;}.cls-8{fill:#5d5d5d;}.cls-9{fill:#7e7a6a;}.cls-10{fill:#a2a5a5;}.cls-11{fill:#838585;}.cls-12{fill:#b8bcbc;}.cls-13{fill:#919393;}.cls-14{fill:#c9cece;}.cls-15{fill:#878989;}.cls-16{fill:#949898;}.cls-17{fill:#919494;}.cls-18{fill:#7b7d7d;}.cls-19{fill:#b3b8b8;}.cls-20{fill:#a1a4a4;}.cls-21{fill:#848686;}</style></defs><title>Recurso 11</title><g id="Capa_2" data-name="Capa 2"><g id="Pagina_Movil" data-name="Pagina Movil"><g id="proyecto_4" data-name="proyecto 4"><path class="cls-1" d="M145.22,212.66q-72.6,0-145.22,0Q0,106.34,0,0,145.23,0,290.45,0q-.06,106.35,0,212.69Q217.83,212.63,145.22,212.66Z"/><path class="cls-2" d="M227.84,105.57a86.37,86.37,0,0,1-5,29.54,84.45,84.45,0,0,1-14.35,25c-9.94,12.32-22.67,20.4-37.47,25.64a76.5,76.5,0,0,1-48.82,1c-15-4.54-28.13-12.47-38.45-24.45a83.89,83.89,0,0,1-15-24.23,84.64,84.64,0,0,1,5.6-74.72c5.87-10.27,13.88-18.49,23.35-25.42,17.22-12.6,36.53-17,57.51-14.71a75.84,75.84,0,0,1,34.93,12.65C200,42.57,208.57,50.74,214.85,61a84,84,0,0,1,10.47,24.45A81.43,81.43,0,0,1,227.84,105.57Z"/><path class="cls-3" d="M124.9,44,152,43.91c8.33,0,16.66,0,25,0a6.3,6.3,0,0,1,6.3,4.12q2.35,5.48,4.67,11A18.6,18.6,0,0,1,189.39,66c.09,8.22,0,16.44,0,24.66,0,.31-.07.63-.11,1-.76-.11-.85-.71-.92-1.31a18.9,18.9,0,0,1-.07-2.26c0-6.55,0-13.11,0-19.66,0-3.3-1.06-4.35-4.36-4.36-12,0-24,0-35.94,0-1.19,0-2.37,0-3.54-.09s-1.52-1-2.11-1.6c-4-4.15-8.06-8.17-12.15-12.18-1.53-1.5-3.19-2.87-4.67-4.42C125.07,45.27,124.47,44.79,124.9,44Z"/><path class="cls-4" d="M124.9,44Q133,51.91,141,59.84a23.1,23.1,0,0,1,2.91,3.41c-.48.91-1.37.75-2.14.77-3,.07-6,0-9,0H110.54c-3.18,0-6.43-.39-9.4,1.25-.36-.2-.29-.5-.17-.81a19.29,19.29,0,0,1,1.48-5.73c1.59-3.63,3.17-7.27,4.8-10.89a6.17,6.17,0,0,1,6.06-4Z"/><path class="cls-5" d="M101,65.23a4.77,4.77,0,0,1,4.3-2q19.29,0,38.58,0l40.26,0c3.68,0,4.92,1.24,4.92,4.9q0,10.71,0,21.42a4.8,4.8,0,0,0,.21,2.06,8.18,8.18,0,0,0-.22,2.56q0,32.31,0,64.64c0,3.39-1.39,4.76-4.79,4.76h-1.93a5.13,5.13,0,0,1-2.18.44h-8.65a5.13,5.13,0,0,1-2.18-.44H120.75a.42.42,0,0,1,0-.55c.86-.77,1.94-.54,2.93-.54,10.86,0,21.71,0,32.57,0,1.06,0,2.21.17,2.74-1.13a4.94,4.94,0,0,1,3-.47c6.78,0,13.55,0,20.32,0a13.24,13.24,0,0,0,2.09-.08,2.12,2.12,0,0,0,1.91-1.89,14,14,0,0,0,.1-2.42V70.09c0-3.84-.27-4.1-4.14-4.1H107.6c-3.94,0-4.18.25-4.19,4.22,0,6.93,0,13.86,0,20.8a8.41,8.41,0,0,1-.24,2.87c-.66.9-1.24.53-1.74-.15a8.79,8.79,0,0,1-.67-1.42q0-13.09,0-26.18C101,65.88,100.69,65.45,101,65.23Z"/><path class="cls-6" d="M159.07,161.7c.2.46.93.8.55,1.37s-.9.21-1.36.21H120.69a1.8,1.8,0,0,1-1.38.71q-5.16.17-10.3,0a4.45,4.45,0,0,1-1.23-.36l-2.9-.06a3.88,3.88,0,0,1-4.17-3.94c0-.26,0-.53,0-.8V93.44c0-.38,0-.75,0-1.13.62.65,1.25,1.29,1.88,1.94a1,1,0,0,1,.39.48,18.45,18.45,0,0,1,.4,4.32q0,28.76,0,57.52c0,4,.35,4.33,4.32,4.33h47.21a10.55,10.55,0,0,1,3.66.4A1,1,0,0,1,159.07,161.7Z"/><path class="cls-7" d="M107.78,163.64c.54-.5,1.21-.34,1.84-.34,3.69,0,7.38,0,11.07,0l.06.33c0,1.45-.06,2.89,0,4.34,0,.78-.16,1.16-1.06,1.15q-5.39-.06-10.78,0c-.86,0-1.11-.3-1.09-1.12C107.83,166.54,107.79,165.09,107.78,163.64Z"/><path class="cls-8" d="M169.37,163.62a1.33,1.33,0,0,1,1-.32h10.93a1.33,1.33,0,0,1,1,.32c0,1.4-.08,2.79,0,4.18,0,.94-.21,1.33-1.24,1.32-3.48-.06-7-.06-10.45,0-1,0-1.28-.38-1.24-1.32C169.45,166.41,169.39,165,169.37,163.62Z"/><path class="cls-9" d="M101,65.23l-.3.9a2.39,2.39,0,0,1,.23-1.64C101,64.74,101,65,101,65.23Z"/><path class="cls-10" d="M102.66,94.53l0-.28q0-13.06,0-26.13c0-2.44.47-2.91,2.93-2.91h78.7c2.42,0,2.9.48,2.9,3v90.31c0,2.56-.67,3.21-3.26,3.21l-24.84,0-.27,0c-1.86-1.06-3-2.83-4.28-4.45a1.21,1.21,0,0,1,0-1.62,4.21,4.21,0,0,1,2.8-.48c6.5,0,13,0,19.5,0a13,13,0,0,0,2.25-.1,3.08,3.08,0,0,0,2.66-2.66,13.89,13.89,0,0,0,.1-2.41q0-15.48,0-30.95a13.34,13.34,0,0,0,0-3.68c-.16-1.1,0-2.21-.12-3.31a3.71,3.71,0,0,0,.32-1.39c-.39-11.44-.08-22.88-.17-34.32,0-4.72-.72-5.44-5.4-5.44q-31.59,0-63.19,0c-4.6,0-5.35.74-5.36,5.31,0,6.66,0,13.33,0,20a10,10,0,0,1-.21,2.88c-.8,1.15-1.57.57-2.21-.13A10.83,10.83,0,0,1,102.66,94.53Z"/><path class="cls-11" d="M102.66,94.53c1.69,1.45,2.76,3.47,4.49,4.89a.88.88,0,0,1,.61,1c.34,4.61-.21,9.23,0,13.82.37,9.78.06,19.55.2,29.32,0,2.21,0,4.41,0,6.61,0,4.07.89,5,4.9,5H149.1a32.14,32.14,0,0,1,4.5.2c.65,0,.87.37,1,.9,1.33,1.89,3.27,3.3,4.23,5.47H105.3c-2,0-2.66-.84-2.66-3.15q0-21.53,0-43Z"/><path class="cls-12" d="M182.31,112a3.81,3.81,0,0,1,0,2.91,1.83,1.83,0,0,1-1.41,2,3.21,3.21,0,0,1-1.39.35c-4.29,0-8.58.17-12.87-.09-.49-.05-1,0-1.48,0a32.52,32.52,0,0,1-4.63.14,6,6,0,0,0-1.34,0c-1.23-.1-2.45.1-3.68.08a2,2,0,0,0-1.84,1.08,9.42,9.42,0,0,1-3.81,3.8,1.8,1.8,0,0,0-1,1.73c0,.91-.19,1.8-.18,2.72,0,.45,0,.89,0,1.34a21,21,0,0,1,0,4.62c0,.5,0,1,0,1.49a120.56,120.56,0,0,1-.1,14c-.85,1.14-1.53.53-2.19-.21-1.79-2-3.44-4.09-5.06-6.23a1.54,1.54,0,0,1-.1-.56,52.9,52.9,0,0,1,0-7,14,14,0,0,0,0-1.45c-.18-1.54-.11-3.08-.15-4.62a3.11,3.11,0,0,0,.14-1.32,19.37,19.37,0,0,0-.17-3c0-.78-.56-1.23-1.13-1.66a12.18,12.18,0,0,1-3.54-3.68,1.83,1.83,0,0,0-1.73-1c-1.18,0-2.35-.18-3.54-.08a5.94,5.94,0,0,0-1.33,0,30,30,0,0,1-4.54-.14c-.46,0-.93,0-1.39,0a18.15,18.15,0,0,1-2.45-.06A1.06,1.06,0,0,1,121,117a26.36,26.36,0,0,1-4.09-4.42c-.56-.75-1.23-1.57-.27-2.52a14.31,14.31,0,0,1,3.52-.14c4.82,0,9.65,0,14.48,0a2,2,0,0,0,2-1,12,12,0,0,1,3.81-3.86,1.39,1.39,0,0,0,.78-1.58c0-1.74,0-3.49.14-5.23-.14-.48,0-1-.08-1.46a44.62,44.62,0,0,1,.07-4.77,25.85,25.85,0,0,1,0-4.22c-.09-3.48-.45-7,.22-10.41a6.38,6.38,0,0,1,.91-.89c1.87-1.71,3-1.71,4.81,0,.31.29.63.57.92.89a7.92,7.92,0,0,1,.36,3.48c0,2.31.08,4.62-.09,6.92a25.85,25.85,0,0,1,0,4.22,24.53,24.53,0,0,1,0,4.77c0,.49,0,1,0,1.47.26,1.73,0,3.5.32,5.23a1.43,1.43,0,0,0,.93,1.52,9.75,9.75,0,0,1,3.88,3.76,2.37,2.37,0,0,0,2.38,1.21c7.79,0,15.57,0,23.35,0C181.27,109.89,182,110.39,182.31,112Z"/><path class="cls-5" d="M107.47,100.05l-.32-.63V74.76c0-3.39,1.3-4.71,4.63-4.71H178c3.28,0,4.63,1.32,4.63,4.55q0,18.21,0,36.42c-1.1-.35-2.24-.64-2.51-2a15.76,15.76,0,0,0,.13-2.57V78a12.19,12.19,0,0,0-.09-2.09,3.12,3.12,0,0,0-2.73-2.77,14,14,0,0,0-2.42-.1h-59.5c-4.59,0-5.33.75-5.33,5.35,0,6.83,0,13.66,0,20.48a6.48,6.48,0,0,1-.33,2.86C108.43,102.51,107.82,102.07,107.47,100.05Z"/><path class="cls-5" d="M181.06,116.22l1.29-1.29a3,3,0,0,1,.3,1.87q0,17.34,0,34.66c0,3-1.39,4.4-4.45,4.41H156.61a3.36,3.36,0,0,0-2,.32l-.62-.65c-.91-.25-1.55-.64-.8-1.68a5.49,5.49,0,0,1,2.83-.37c6.55,0,13.1,0,19.65,0,3.62,0,4.61-1,4.62-4.59,0-9.82,0-19.65,0-29.47A4.33,4.33,0,0,1,181.06,116.22Z"/><path class="cls-13" d="M180.39,109.42l2.25,1.6a1.4,1.4,0,0,1-.33,1,3.47,3.47,0,0,0-3.39-1.66c-7.82,0-15.65,0-23.47,0a2.23,2.23,0,0,1-2.4-1.39,7.69,7.69,0,0,0-4.13-3.86c-.71-.31-1.23-.66-1.09-1.53.72-.74,1.45-.42,2.17,0a12.83,12.83,0,0,1,3.47,3.26c1.31,1.7,2.53,2.19,4.62,1.6a8.79,8.79,0,0,1,.9-.34c.75,0,1.31.74,2.12.48a41.18,41.18,0,0,1,4.44.16c.5,0,1,0,1.49-.05,3.85-.21,7.69-.1,11.54-.07C179.26,108.68,180,108.64,180.39,109.42Z"/><path class="cls-6" d="M153,154.26c.32.43.65.85,1,1.28a3.25,3.25,0,0,1-2,.33H111.76c-3.27,0-4.61-1.33-4.61-4.59v-49.2a3.26,3.26,0,0,1,.32-2l1.9,2a.87.87,0,0,1,.5.6,32.68,32.68,0,0,1,.34,4.32,1.48,1.48,0,0,0,1.71,1.66,22.93,22.93,0,0,1,3.2.29,1.17,1.17,0,0,1,.52.12,1.31,1.31,0,0,1,.64,1.38c-.34.72-1,.67-1.65.71-1.12.06-2.24,0-3.36.06-2.31.15-3.26,2-2,3.92a2.41,2.41,0,0,1,.66,1.42,15.85,15.85,0,0,1,.24,3.37v27.88c0,.75,0,1.51,0,2.26.16,2.2,1.25,3.28,3.48,3.43.8.05,1.61,0,2.42,0H149a10.92,10.92,0,0,1,3.51.39A1,1,0,0,1,153,154.26Z"/><path class="cls-10" d="M109.45,102.59c0-.19-.06-.37-.08-.56q0-12.48,0-25c0-3.47,1.28-4.75,4.75-4.75q31.11,0,62.2,0c3.37,0,4.67,1.3,4.68,4.66q0,15.24,0,30.46c0,.71.27,1.55-.64,2l-13.54,0a2.38,2.38,0,0,1-.78-1.85c-1.13-9.72-7-16.39-16.45-18.75a3.11,3.11,0,0,1-1.79-1q0-4.17,0-8.33a5.12,5.12,0,0,0-.31-2c-.5-1.56-1.36-2.3-2.68-2.21a2.47,2.47,0,0,0-2.52,2.21c-.61,2.21-.19,4.46-.29,6.7-.06,1.22,0,2.45,0,3.68a3.11,3.11,0,0,1-1.7,1.1c-9,2.33-14.87,9.28-15.91,18.63-.1.86.06,1.88-1,2.32-2,.07-4,0-5.95,0a3.3,3.3,0,0,1-1.84-.48l-.27,0A14.3,14.3,0,0,1,109.45,102.59Z"/><path class="cls-11" d="M152.69,154.22q-19.63,0-39.29,0c-2.59,0-4-1.5-4-4.21q0-16.9,0-33.82s.07-.1.12-.11c3.86-.46,7.73-.94,11.54.38l.27.06a4.37,4.37,0,0,1,2.41,2,6.32,6.32,0,0,0,2,2,19.27,19.27,0,0,1,1.06,1.8,13.18,13.18,0,0,0,5.81,6.8c.57.4,1,1,1.56,1.36.78,1.91,2.73,2.84,3.77,4.52,1.32,2.12,3.42,3.71,4.07,6.26a2.36,2.36,0,0,1,0,.28,7.2,7.2,0,0,1,.73,3.9c0,.81,0,1.61,0,2.42,0,1.2.27,2.3,1.56,2.71s2-.36,2.65-1.32c.24-.36.48-.72,1-.73C149.66,148.65,153,152.66,152.69,154.22Z"/><path class="cls-10" d="M152.69,154.22a49.72,49.72,0,0,0-4.55-5.48c-.11-.07-.14-.15-.12-.23s.07-.12.1-.12l0-14.48a2.65,2.65,0,0,1,1.52-.82c8.2-2.06,13.61-7.06,15.92-15.27a2.83,2.83,0,0,1,.91-1.29l12.19,0a5.93,5.93,0,0,0,2.37-.29q0,16.61,0,33.22c0,3.56-1.26,4.82-4.86,4.82H153Z"/><path class="cls-14" d="M150.73,111a6.21,6.21,0,0,1-4,8.46,6.06,6.06,0,0,1-7.49-6.86c.07-.42.14-.84.22-1.27.11-2.46,2.82-4.3,4.63-4.64a6.22,6.22,0,0,1,6.79,3.86A.53.53,0,0,1,150.73,111Z"/><path class="cls-15" d="M165.55,109.41l-4.86,0c-.88-.35-1-1.24-1.22-2a14.84,14.84,0,0,0-10.16-9.68,2.52,2.52,0,0,1-1.46-.9V92a1.92,1.92,0,0,1,2.17-.59c7.25,1.36,14.46,8.42,15.88,15.61C166.05,107.82,166.39,108.72,165.55,109.41Z"/><path class="cls-15" d="M142,92c0,1.62,0,3.24,0,4.86-.21.63-.75.83-1.33,1a15,15,0,0,0-10,10.69c-.15.5-.14,1.09-.8,1.28a39.63,39.63,0,0,1-4.75,0c-.83-.44-.81-1.16-.66-1.94a21.12,21.12,0,0,1,15.51-16.33C140.69,91.36,141.41,91.24,142,92Z"/><path class="cls-15" d="M160.36,116.56l4.85,0c.73.56.46,1.3.26,1.93a20.93,20.93,0,0,1-15.73,14.62,1.34,1.34,0,0,1-1.58-.46l0-4.84a3,3,0,0,1,1.73-1.08,14.78,14.78,0,0,0,9.26-8.73C159.44,117.37,159.68,116.8,160.36,116.56Z"/><path class="cls-15" d="M125.23,116.55h4.86a2.09,2.09,0,0,1,1.19,1.41,14.78,14.78,0,0,0,9.33,8.77,2.25,2.25,0,0,1,1.33,1l0,4.85c-.48.65-1.09.48-1.74.34-3.86-.8-6.94-3-9.83-5.5-.49-.42-.94-.88-1.43-1.3a39.47,39.47,0,0,1-3.84-7.27C124.86,118.14,124.4,117.29,125.23,116.55Z"/><path class="cls-5" d="M165.55,109.41c-1.42-8.73-7.27-15.21-15.49-17.18a7.56,7.56,0,0,0-2.22-.23c0-1.4,0-2.8,0-4.19,6.68.67,11.74,4,15.49,9.46a20,20,0,0,1,3.53,12.13Z"/><path class="cls-5" d="M142,92c-7.58.68-15.14,7.69-16.72,15.51-.13.63-.23,1.27-.34,1.9a.84.84,0,0,1-1.31,0c.11-11.14,7.61-20,18.38-21.59C142,89.21,142,90.6,142,92Z"/><path class="cls-10" d="M159.11,108.43a1,1,0,0,1-1.06,1c-1.13,0-2.25,0-3.38,0-.81,0-1-.6-1.35-1.17-1.27-2.19-2.9-4-5.49-4.61l0-5.56c.52-.61,1.14-.45,1.77-.25a14.94,14.94,0,0,1,9.56,8.86C159.43,107.24,159.78,107.88,159.11,108.43Z"/><path class="cls-10" d="M142,98.09c0,1.85,0,3.7,0,5.55a2.46,2.46,0,0,1-1.07,1.12,8.53,8.53,0,0,0-3.79,4,1.86,1.86,0,0,1-2,1.17c-.93-.05-1.87,0-2.8,0a1.27,1.27,0,0,1-1.47-.92c-.08-2.16,1-3.87,2.2-5.52a14.21,14.21,0,0,1,7.29-5.5C140.89,97.79,141.46,97.56,142,98.09Z"/><path class="cls-16" d="M121.05,116.48l-9.77,0a4.84,4.84,0,0,1-1.89-.3,2.93,2.93,0,0,1-1.36-3.7c.58-1.67,1.79-2.22,3.48-2.15,1.54.07,3.08,0,4.62,0a.28.28,0,0,1,.38,0C117.52,112.78,119.67,114.35,121.05,116.48Z"/><path class="cls-10" d="M148.16,126.55a13.85,13.85,0,0,0,0-1.44c-.24-1.91.12-3.36,2.22-4.15a5.75,5.75,0,0,0,2.79-3.2,2,2,0,0,1,2.14-1.27c1.28.07,2.56,0,3.84,0a1.6,1.6,0,0,1-.06,1.81,15,15,0,0,1-9.12,8.39C149.31,126.92,148.7,127.17,148.16,126.55Z"/><path class="cls-10" d="M131.33,116.52c.43,0,.86,0,1.29,0,2.19-.11,4.33-.31,5.32,2.44a4.12,4.12,0,0,0,2,2,3.42,3.42,0,0,1,2,4,14.19,14.19,0,0,0,0,1.6c-.52.53-1.09.31-1.65.11a15,15,0,0,1-9.09-8.76A1.32,1.32,0,0,1,131.33,116.52Z"/><path class="cls-16" d="M148.12,148.39c0,.12,0,.23,0,.35-.19.37-.38.76-.58,1.13a2.89,2.89,0,0,1-5.55-1.2c0-2.35,0-4.7,0-7,1.87,1.77,3.36,3.85,5.06,5.77A3.22,3.22,0,0,0,148.12,148.39Z"/><path class="cls-5" d="M148.16,132.63a19.17,19.17,0,0,0,14.47-9.38,16.15,16.15,0,0,0,2.58-6.71h1.29c-1.39,8.88-9.6,16.65-18.35,17.38C148.15,133.49,148.16,133.06,148.16,132.63Z"/><path class="cls-10" d="M142,141.35,133.6,131c.44-.54,1-.35,1.43-.08a20.06,20.06,0,0,0,5.79,2.17,2.3,2.3,0,0,1,1.15.8Z"/><path class="cls-17" d="M116.51,110.38l-.38,0-.6-.93,8.06,0h6.47c.39-.27.57-.94,1.26-.66,1.58,1.34,4.89.9,5.86-.82a9.38,9.38,0,0,1,4.78-4.28,1.42,1.42,0,0,1-.91,1.66,7.91,7.91,0,0,0-3.81,3.78,2.09,2.09,0,0,1-2.25,1.31C128.83,110.36,122.67,110.38,116.51,110.38Z"/><path class="cls-18" d="M159.11,108.43c-1.72-5.66-5.37-9.22-11.25-10.37,0-.41,0-.81,0-1.22C154,98,158,101.62,160.09,107.4c.24.65.4,1.33.6,2C159.89,109.53,159.45,109.06,159.11,108.43Z"/><path class="cls-18" d="M131.32,108.74a1.5,1.5,0,0,1-1.26.67c.51-5,3.47-8.23,7.43-10.8A15.64,15.64,0,0,1,142,96.86c0,.41,0,.82,0,1.23C136.43,99.65,132.73,103.05,131.32,108.74Z"/><path class="cls-18" d="M148.16,126.55c5.62-1.19,9.05-4.77,11-10l1.25,0c-2,6-5.93,9.87-12.18,11.23C148.17,127.38,148.17,127,148.16,126.55Z"/><path class="cls-18" d="M131.33,116.52c1.84,5.16,5.26,8.63,10.64,10l0,1.24c-6-1.55-9.89-5.37-11.85-11.22Z"/><path class="cls-5" d="M142,133.91c-3-.25-5.63-1.78-8.37-2.89l-1.27-1.28c-1.2-1.09-2.58-2-3.07-3.71l.15-.16a29.33,29.33,0,0,0,7.36,5.28,14.88,14.88,0,0,0,5.19,1.48C142,133.05,142,133.48,142,133.91Z"/><path class="cls-19" d="M150.73,111a5.88,5.88,0,0,0-5.76-3.8,6.23,6.23,0,0,0-5.56,4.13c-.25-1.75,1.17-4,3.28-4.74,3-1.09,6.36-.38,7.9,2.92C150.82,110,151.13,110.47,150.73,111Z"/><path class="cls-5" d="M125.23,116.55c.38,3,1.83,5.49,3.4,8,.28.44.71.8.78,1.36h0c-.69.32-.9-.31-1.26-.64a17.9,17.9,0,0,1-1.95-2.63c-.09-.67-.68-1-1-1.57a14.05,14.05,0,0,1-1.48-2.47c-.35-.69-.55-1.43.21-2Z"/><path class="cls-17" d="M142.3,77.43c-.52-1.25.38-1.86,1.18-2.42a2.36,2.36,0,0,1,2.84,0c.8.57,1.7,1.18,1.18,2.43C145.68,75.28,144.12,75.28,142.3,77.43Z"/><path class="cls-20" d="M124,116.54a20.63,20.63,0,0,0,1.27,4.5,30.42,30.42,0,0,1-3.9-4.5Z"/><path class="cls-21" d="M109.45,102.59a60.59,60.59,0,0,1,5.8,6.79c-1.49,0-3,0-4.49,0-1,0-1.37-.41-1.35-1.36C109.44,106.23,109.44,104.41,109.45,102.59Z"/><path class="cls-3" d="M126.19,122.61c1.27.89,1.86,2.45,3.21,3.27.7,1.49,2,2.51,2.93,3.86A15.77,15.77,0,0,1,126.19,122.61Z"/></g></g></g></svg>