<svg xmlns="http://www.w3.org/2000/svg" viewBox="0 0 290.54 208.23"><defs><style>.cls-1{fill:#b94c62;}.cls-2{fill:#236d58;}.cls-3{fill:#45b29b;}.cls-4{fill:#216854;}.cls-5{fill:#308b74;}.cls-6{fill:#134435;}.cls-7{fill:#389a82;}.cls-8{fill:#4c2e0b;}.cls-9{fill:#985f1a;}.cls-10{fill:#e1b178;}.cls-11{fill:#fefefe;}.cls-12{fill:#fdfdfd;}.cls-13{fill:#d7d7d7;}.cls-14{fill:#4d2f0b;}.cls-15{fill:#331d07;}.cls-16{fill:#985e1a;}.cls-17{fill:#4b2e0b;}.cls-18{fill:#714612;}.cls-19{fill:#714512;}.cls-20{fill:#7e5220;}.cls-21{fill:#b97e3d;}.cls-22{fill:#995f1a;}.cls-23{fill:#975e1a;}.cls-24{fill:#b67b3a;}.cls-25{fill:#a46a27;}.cls-26{fill:#b87d3c;}.cls-27{fill:#805321;}.cls-28{fill:#b97e3e;}.cls-29{fill:#825624;}.cls-30{fill:#825523;}.cls-31{fill:#b27837;}.cls-32{fill:#b87d3d;}</style></defs><title>Recurso 10</title><g id="Capa_2" data-name="Capa 2"><g id="Pagina_Movil" data-name="Pagina Movil"><g id="proyecto_3" data-name="proyecto 3"><path class="cls-1" d="M145.27,208.2q-72.63,0-145.27,0Q0,104.12,0,0,145.27,0,290.54,0q0,104.12,0,208.23Q217.91,208.19,145.27,208.2Z"/><path class="cls-2" d="M73.66,144.84c-3.45-5.62-5.66-11.76-7.76-18a73.68,73.68,0,0,1-3.35-26.28c.63-1.44,2-1.32,3.15-1.3s1.56-.19,1.34-1.54A15.17,15.17,0,0,1,79.11,80.29c2.08-.44,2.08-.44,1.91-2.7-.6-8,4.82-16.13,12.54-18.41,2.38-.7,5-1.22,7.5-.38.85,2.32.85,2.32,3.6,2.32,2.22,0,4.44,0,6.67,0,1.7,0,1.94-.45,1.27-2a4.27,4.27,0,0,1-.61-1.61,5.67,5.67,0,0,1,1.84-3.28A19.81,19.81,0,0,1,140.16,52,23.25,23.25,0,0,1,144,55.84a1.36,1.36,0,0,0,2.05.33c6.83-3.82,14-4.49,21.18-1.41,7.44,3.17,11.88,8.93,13.47,16.87a17.07,17.07,0,0,1,.37,4,1.42,1.42,0,0,0,1.33,1.66,16.82,16.82,0,0,1,8.58,4,22.48,22.48,0,0,1,5,6.18,12.27,12.27,0,0,1,1.43,5.83c0,.7,0,1.39,0,2.08-.07,1.19.44,1.78,1.62,2.15a13.59,13.59,0,0,1,8.49,7.46,14.13,14.13,0,0,1,.71,9.37c-.29,1.33-.07,1.84,1.26,2.25a15.54,15.54,0,0,1,10.67,10.34,3.32,3.32,0,0,1,.14,2.34,2,2,0,0,1-1.29.87,15.06,15.06,0,0,0-4.43,2.16c-1.56,1.05-2.36.68-2.57-1.13-1.09-9.6-8.5-15.77-18-15a2.59,2.59,0,0,1-1.41-.13,1.38,1.38,0,0,1-.72-.82c-.82-2.92-3.22-4.6-5.28-6.46s-3.9-3.62-5.87-5.41c-4.09-3.72-8.07-7.56-12.22-11.22-1.47-1.3-2.71-2.82-4.12-4.19-3.51-3.41-7.1-6.75-10.8-9.92-2-1.75-4.09-3.53-6.26-5.15s-4.14-1.5-6.31.07-3.69,3.51-5.68,5.13a59.24,59.24,0,0,0-6.56,5.81c-.32.35-.71.72-1.25.44a1.33,1.33,0,0,1-.63-1.21c-.08-1.07,0-2.14-.09-3.2s-.29-2.4-1.86-2.56c-1-.11-1.24,1.23-2.23,1.09s-1.27-1.14-2.19-1.21-1.36,1.09-2.32.94-1.48-1.15-2.52-.74c-1.08.73-1.15,1.84-1.16,3,0,4.37,0,8.74,0,13.11a13.6,13.6,0,0,1-.23,2.85,2.65,2.65,0,0,1-1,2.08c-2.2,2.34-4.85,4.17-7.16,6.37-2.71,2.56-5.61,4.93-8.13,7.69-1.68,1.84-1.66,3.77-.08,6.62.41.65,1.3.9,1.49,1.74a2.39,2.39,0,0,1-.2,1.24,3.94,3.94,0,0,0,1.77,4.7c1.46,1,1.46,1.33,0,2.35-2.63,1.82-2.63,5,0,6.93,1.45,1.07,1.44,1.41,0,2.35a3.94,3.94,0,0,0-1.67,4.69c.24.82.25,1.46-.56,1.92a4.08,4.08,0,0,1-1.42.18c-7.18.05-14.35,0-21.53,0A6.39,6.39,0,0,1,73.66,144.84Z"/><path class="cls-3" d="M71.41,67.59a70.45,70.45,0,0,1,9.49-15,78.84,78.84,0,0,1,25.94-21.23,83.25,83.25,0,0,1,45-9A81.53,81.53,0,0,1,194.06,38c19.08,13.86,29.81,32.66,33.07,55.87a52.1,52.1,0,0,1,.56,10.21,1.78,1.78,0,0,1-1.7.7,17.06,17.06,0,0,0-5.48.94c-1.69.54-2.25.27-2.8-1.35a11.2,11.2,0,0,0-8.17-7.59c-1.95-.53-2.25-.9-2.36-2.69a10.93,10.93,0,0,0-6.52-9.69,3,3,0,0,1-1.87-2.36c-1.21-6.78-6.57-9.59-12.76-9.74-2-.65-2.58-1.28-2.53-3.46a14.7,14.7,0,0,0-2.64-9.06,14,14,0,0,0-12.66-6.08,3.68,3.68,0,0,1-3-1.41,15.49,15.49,0,0,0-9.27-4.94,16.65,16.65,0,0,0-8.78,1c-2,.8-2.53.7-3.79-1a19.17,19.17,0,0,0-13-8,19.52,19.52,0,0,0-20.51,9.91c-.5.94-1.17,1.77-1.7,2.7-.74,1.29-1.3,1.47-2.6.68A18.31,18.31,0,0,0,98.22,50c-6.46-.79-11.57,1.57-15.58,6.55a17.28,17.28,0,0,0-3.44,9c-.21,1.73-.62,2.1-2.37,2.12-1.4,0-2.75.37-4.14.38C72.2,68,71.72,68.08,71.41,67.59Z"/><path class="cls-4" d="M208.42,157a75.21,75.21,0,0,1-20.1,17.08,80.78,80.78,0,0,1-36.45,11.8,82.07,82.07,0,0,1-42.25-7.76,24.4,24.4,0,0,1-5-2.53c.58-1,1.59-.74,2.44-.75,6.25,0,12.49,0,18.73,0a17.23,17.23,0,0,0,2.87-.19c4.51-.81,6.36-3.42,5.59-8-.11-.69-.35-1.37.25-2a2.42,2.42,0,0,1,1.67-.4c6.37,0,12.75-.14,19.12.06,9.08-.14,18.16-.21,27.23,0a5.84,5.84,0,0,0,1.4-.19,6.23,6.23,0,0,1,1.88.19c2.58.43,5.26-2.62,3.79-5.79-.31-.68-1-1.37,0-2.08a3,3,0,0,1,1.4-.24c5.21-.05,10.41-.06,15.62,0C207.29,156.26,208,156.22,208.42,157Z"/><path class="cls-5" d="M71.41,67.59A24.16,24.16,0,0,1,77,67c1,.06,1.47-.27,1.57-1.42.68-7.84,5.33-13.61,12.83-15.83a16.88,16.88,0,0,1,14.52,2.34c.94.62,1.16.54,1.66-.47,3.33-6.66,8.14-11.66,15.84-12.87,8.46-1.33,15.47,1.32,20.58,8.34.82,1.13,1.41,1.35,2.71.75a16.55,16.55,0,0,1,18.47,3.48,4.92,4.92,0,0,0,3.93,1.7,14.82,14.82,0,0,1,15.1,14.94c0,1.7,0,3.21,1.93,3.86,3.57,1.66,4.56,4.91,5.14,8.39a1.31,1.31,0,0,1-.64,1.51,18.16,18.16,0,0,0-9.19-3.82c-1.11-.11-1.08-.82-1.07-1.59a21.59,21.59,0,0,0-5.16-14.77,21.22,21.22,0,0,0-14.44-7.7,22.25,22.25,0,0,0-15.2,3.6c-.81.54-1.17.24-1.65-.43-4.16-5.78-9.87-8.64-16.92-8.2a17.48,17.48,0,0,0-14.54,8.6c-.57.31-1,0-1.46-.3a6.36,6.36,0,0,0-5.91-.81,2.18,2.18,0,0,1-1.7,0,6.31,6.31,0,0,1-1.22-1.45A5.5,5.5,0,0,0,97,52.47a5.39,5.39,0,0,0-5,3.44c-.49,1.26-.29,1.64,1.1,1.68,2.12,0,4.24,0,6.37,0,.73,0,1.54-.06,1.83.89,0,.27-.12.46-.43.45-7.86-.35-13.76,2.89-17.41,9.86A14.56,14.56,0,0,0,82,78.75c.31,1.44,0,1.89-1.63,2.09a14.35,14.35,0,0,0-12.28,18c.33,1.28.1,1.48-1.14,1.2a7.31,7.31,0,0,0-4.39.51A60.72,60.72,0,0,1,64.76,85c1.71-5.58,3.38-11.2,6.08-16.42C71,68.21,71.22,67.91,71.41,67.59Z"/><path class="cls-6" d="M208.42,157H189.31c-.85.4-1.49-.2-2-.63-.8-.69-.15-1.21.48-1.6a4.15,4.15,0,0,0,.28-7.21c-1.48-1-1.55-1.33,0-2.11,2.93-1.52,2.45-6.07-.1-7.22-1.39-.63-1.31-1.22,0-2.07,2.92-1.83,2.84-5.36-.16-7.25-1.09-.68-1.13-1.17-.15-1.86,2.54-1.79,2.88-2.85,1.89-5.79a1.72,1.72,0,0,1-.07-.78c.1-.61.61-.93,1-1.36a8.53,8.53,0,0,0,1.14-2.35,1.37,1.37,0,0,1,.95-1.13c9.9-1.54,18.11,4.15,20,13.81.19,1-.43,2.36.53,2.76.71.29,1.53-.95,2.35-1.43a16.72,16.72,0,0,1,4.63-1.69,3,3,0,0,1,3.79-.07A77.19,77.19,0,0,1,213.11,151,53.51,53.51,0,0,1,208.42,157Z"/><path class="cls-6" d="M134.56,165a8.23,8.23,0,0,1,.2,6.22c-1.38,3.35-4.27,4.27-7.54,4.29-6.77.05-13.55,0-20.32,0-.74,0-1.49,0-2.24,0a70.83,70.83,0,0,1-14-9.84,34.26,34.26,0,0,1-4.13-3.95,2.21,2.21,0,0,1,.12-2.53A9.45,9.45,0,0,1,95.28,154c1.24,0,2.45.06,3.24-1.16.33-.26.52-.66.86-.92a6.63,6.63,0,0,1,4-2,4.87,4.87,0,0,1,2.91.41,2.52,2.52,0,0,1,1.15.4,9.61,9.61,0,0,1,1.53.62,9.24,9.24,0,0,1,2.39,2.74c.29.63.78.55,1.36.4a9.39,9.39,0,0,1,7.39,1c1.14,1.08,2.55,1.89,3.23,3.4a5.18,5.18,0,0,1,.53,1.81c.09.78.39,1.1,1.28.88a10.06,10.06,0,0,1,5.31-.3,15,15,0,0,1,2.19.89C133.57,162.89,134.79,163.46,134.56,165Z"/><path class="cls-7" d="M223.86,129l-3.79.07a16,16,0,0,0-6.31-9.68,14.41,14.41,0,0,0-5.67-2.45c-1-.18-1.36-.42-1-1.55,3-8.62-2.35-16-9.2-17.46a1.4,1.4,0,0,1-1.26-1.67,33.33,33.33,0,0,0-.12-4.47c-.36-3.26-2.16-5.82-4.22-8.23-.55-.65-1.15-1.26-1.72-1.88.18-4.07-1.91-7.09-4.5-9.9,6.27-.53,12.78,3.59,13.46,10.59.07.7.5,1,1.07,1.23,4.55,2.11,7.13,5.59,7.25,10.7,0,.84.18,1.39,1.13,1.6,4.86,1.1,8.2,3.87,9.51,8.82.17.67.54.83,1.18.55a17.7,17.7,0,0,1,8-1.17A73.37,73.37,0,0,1,223.86,129Z"/><path class="cls-4" d="M99,153.2c-.47,1.31-1.25,1.7-2.74,1.58a8.8,8.8,0,0,0-9.74,7,72.26,72.26,0,0,1-12.86-16.94,2.76,2.76,0,0,1,2-.36q11.69,0,23.38,0c1.3-.19,1.92.88,2.74,1.55a.65.65,0,0,1-.16,1.09C98.92,148.37,98.85,150.73,99,153.2Z"/><path class="cls-8" d="M190.88,119.53l-1,1c-.62.29-1-.22-1.41-.47-2.2-1.26-3.54-1.14-5.42.59a2.31,2.31,0,0,1-1.55.65c-2.24.54-4.49,0-6.73.09-1.33-.12-2.66-.12-4-.12h-53a49.89,49.89,0,0,0-6.23.2,11.53,11.53,0,0,1-4-.16,2.52,2.52,0,0,1-1.67-.78c-2-1.72-3.59-1.75-5.7-.17-.37.28-.68.71-1.24.42a5.45,5.45,0,0,1-1.52-1.23,2.17,2.17,0,0,1,.94-1.6c3.36-3,6.53-6.11,10-9,1.86-1.56,3.64-3.24,5.38-5,3.13-3.11,6.42-6.07,9.71-9,1.7-1.53,3.36-3.11,5-4.66,3.54-3.23,7.08-6.47,10.54-9.79s7-3.15,10.29.08c2.22,2.14,4.71,4,7,6.07,1.26,1.16,2.27,2.56,3.51,3.69s2.55,2.6,4,3.69c1.94,1.51,3.55,3.36,5.41,5,1.66,1.41,3.41,2.73,5,4.24,5.18,5,10.67,9.65,15.78,14.71C190.42,118.41,190.9,118.8,190.88,119.53Z"/><path class="cls-9" d="M190.88,119.53a72.64,72.64,0,0,1-6.65-6c-10.57-9.7-21-19.51-31.61-29.2-1.48-1.35-3.05-2.64-4.59-4-2.54-2.18-5.55-2-8.09.29-4.64,4.26-9.23,8.56-13.85,12.83-5.67,5.25-11.22,10.65-17.07,15.69-3.92,3.38-7.5,7.12-11.55,10.34-2.25-2.78-2-5.77.53-8.26,4.65-4.48,9.53-8.69,14.33-13,.51-.46,1-1,1.45-1.48,1.37-1.86,1.52-4,1.47-6.19-.08-3.81,0-7.63,0-11.45a3.47,3.47,0,0,1,.67-2.55,2.44,2.44,0,0,1,2.31,1.27c.82.45.7,1.26.71,2,0,2.93,0,5.86,0,8.78a3,3,0,0,0,.28,1.77,2.22,2.22,0,0,0,.47-1.85c0-3.25,0-6.5,0-9.74,0-.8-.06-1.62.66-2.21a2.49,2.49,0,0,1,2.34,1.49c.77.48.66,1.27.69,2a44.54,44.54,0,0,0,.25,6,52.76,52.76,0,0,0,.22-6.77,3.77,3.77,0,0,1,.72-2.7c1.9,0,2.63.65,2.74,2.53.1,1.57,0,3.14,0,5.19l5.16-4.71c2.55-2.34,5-4.75,7.65-7s5.53-2.23,8.19.09c8,7,15.76,14.33,23.58,21.55,5.92,5.45,11.79,10.94,17.73,16.37a7.84,7.84,0,0,1,2.86,5A6.71,6.71,0,0,1,190.88,119.53Z"/><path class="cls-10" d="M99,120.77c2.69-2.86,5.5-2.86,8.05,0,1.61.77,1.36,2.15,1.16,3.52a3.89,3.89,0,0,1-1.78,3.17c-.87.57-.14.76.12,1.1a4.8,4.8,0,0,1,1.64,5.13,4.11,4.11,0,0,1-2.43,3.48c.22.25.62.34.81.66a5.69,5.69,0,0,1-.11,8.19c-.26.23-.68.39-.24.83a7.21,7.21,0,0,1,1.76,2.54,1.39,1.39,0,0,1-.48,2l-1-.58a3.81,3.81,0,0,1-1.14-1.29,2.65,2.65,0,0,0-2.75-1.2,2.48,2.48,0,0,0-2.18,2.2,10,10,0,0,1-.59,1.8l-.78.85c-1.42-2.63-.55-4.84,2.74-6.75a7.43,7.43,0,0,1-2.7-2c-1.37-3.51-.68-5.37,2.64-7.21-5-2.5-3.88-7.8,0-9.26C98.3,125.89,97.7,124.29,99,120.77Z"/><path class="cls-11" d="M101,59l.29-.34c.06-1.87.58-2.47,2.26-2.62,3.25-1.34,6.28-1.2,8.93,1.37a9,9,0,0,1,1.5,3.31c.14.77.07,1.18-.89,1.17q-5.83-.06-11.66,0c-.83,0-1-.27-.86-1C100.68,60.22,100.81,59.59,101,59Z"/><path class="cls-12" d="M116.93,68.93c3.4-1.45,6.77,0,7.6,3.31.24,1,.15,1.47-1.07,1.42-2.39-.08-4.78,0-7.17,0s-2.53-.1-1.5-2.51C114.84,69.46,115.22,69.07,116.93,68.93Z"/><path class="cls-13" d="M116.93,68.93a6.53,6.53,0,0,0-2.14,2.2c-.91-.68-2-.23-2.92-.3-1.23-.09-2.46,0-3.68,0-2.06,0-2.31-.41-1.45-2.27,1.3-2.87,6.61-4.45,9.26-.88Z"/><path class="cls-14" d="M115.9,76.62c0,5.38-.08,10.77.06,16.15a3.94,3.94,0,0,1-2.18,4q0-8.76,0-17.53A2.35,2.35,0,0,1,115.9,76.62Z"/><path class="cls-14" d="M120.38,76.62q0,6.45,0,12.91a3.33,3.33,0,0,1,0,1c-.27.92-1,1.83-1.78,1.79s-.36-1.16-.36-1.79c0-4.2,0-8.4,0-12.59C118.83,77.28,119.37,76.55,120.38,76.62Z"/><path class="cls-8" d="M124.6,76.64c0,3,0,6,0,9,0,.52.12,1.1-.26,1.54s-.74,1.15-1.32,1-.32-.91-.32-1.4c0-2.88,0-5.76,0-8.64A3.05,3.05,0,0,1,124.6,76.64Z"/><path class="cls-15" d="M134.56,165a12.58,12.58,0,0,0-2.27-2.34,3,3,0,0,1-.61-1.93,24.92,24.92,0,0,1,0-4.73,24.2,24.2,0,0,1,0-4.17,29.34,29.34,0,0,1,0-4.78,25.37,25.37,0,0,1,0-4.18c-.18-1.59,0-3.19,0-4.78a24.43,24.43,0,0,1,0-4.19,27.06,27.06,0,0,1,0-5.17,2.11,2.11,0,0,1,.48-1.49,3.31,3.31,0,0,1,2.29-.47q9.33-.06,18.66,0a3.5,3.5,0,0,1,2.3.43,1.91,1.91,0,0,1,.53,1.47,28.22,28.22,0,0,1,0,5.2,25.49,25.49,0,0,1,0,4.19,29.46,29.46,0,0,1,0,4.79,21.62,21.62,0,0,1,0,4.18c-.25,1.6.31,3.19,0,4.78a25.49,25.49,0,0,1,0,4.19,29.83,29.83,0,0,1,0,4.82c-.09,1.38.6,2.9-.65,4.1Z"/><path class="cls-10" d="M182,120.79c2.51-2.78,5-2.88,7.9-.28,1.54,3.47.83,5.56-2.64,7.46,2.07.92,3.44,2.29,3.4,4.65s-1.3,3.74-3.52,4.6c2.17.88,3.48,2.24,3.52,4.55s-1.26,3.74-3.43,4.71c2.06.94,3.41,2.26,3.44,4.55s-1.24,3.75-3.35,4.69l2,1.27a4.76,4.76,0,0,1,.79,5.62c-1.2,2.28-3.28,2.65-5.61,2.31-2.61-.53-3.51-1.51-3.74-4.07-.46-2.2.76-3.64,2.24-4.95-.07-.78-.85-1-1.22-1.52a5,5,0,0,1-1-2.72c-.52-2.2.68-3.63,2.17-4.93.29-.65-.37-.78-.65-1.07a5,5,0,0,1-1.5-3c-.56-2,.61-3.38,1.65-4.81.56-.41.75-.78.07-1.32a4,4,0,0,1-1.58-2.65c-.85-2.27.1-4,1.73-5.45.67-.53.17-.86-.2-1.22a4.77,4.77,0,0,1-1.68-2.9C180.48,122.9,180.43,121.57,182,120.79Z"/><path class="cls-8" d="M181.28,160.8a5.33,5.33,0,0,0,3.21,4.12H155.35l0-4.15a2.32,2.32,0,0,1,2-.69q10.92-.06,21.84,0A2.26,2.26,0,0,1,181.28,160.8Z"/><path class="cls-13" d="M103.5,56a10.32,10.32,0,0,0-2.26,2.62c-1.16-.56-2.4-.2-3.59-.24-1.82-.07-3.63-.08-5.44,0-1.23.06-1.59-.25-1.29-1.52a6.6,6.6,0,0,1,6-5.12A6.3,6.3,0,0,1,103.5,56Z"/><path class="cls-16" d="M132.29,147.06l0,4.71a2.08,2.08,0,0,1-2,.79c-6.3,0-12.6,0-18.89,0a7.84,7.84,0,0,1-2.77-.73l-1.13-.43c.55-1.93-.69-3.11-1.85-4.33.38-.78,1.12-.75,1.8-.75q11.5-.11,23,0A2,2,0,0,1,132.29,147.06Z"/><path class="cls-8" d="M108.62,151.84l23.64-.07c0,1.42,0,2.85,0,4.27a2.22,2.22,0,0,1-1.88.68c-2.6.05-5.2,0-7.8,0a8.15,8.15,0,0,1-2.75-.71c-2.59-1.18-5.2-1.72-7.92-.43-.76.35-.91-.21-1.09-.72A6.91,6.91,0,0,0,108.62,151.84Z"/><path class="cls-9" d="M119.85,156l12.43,0c0,1.56,0,3.13,0,4.7a1.43,1.43,0,0,1-1.53.59,17.33,17.33,0,0,0-5.52.1,1.71,1.71,0,0,1-1.84-.66A10.47,10.47,0,0,0,119.85,156Z"/><path class="cls-9" d="M99.78,152.35c-.37-1.59-.27-3.08,1.14-4.15a3.42,3.42,0,0,1,5.52,2.64A7.2,7.2,0,0,0,99.78,152.35Z"/><path class="cls-17" d="M123.37,160.77l8.89,0,0,1.92c-2.86-1.67-5.65-1.52-8.53.52Z"/><path class="cls-9" d="M170.08,116.59l-37.93,0c-4.54,0-9.07,0-13.61,0a.8.8,0,0,1,.2-1,1.12,1.12,0,0,1,1-.3c4.82-.19,9.65,0,14.47-.16-3.66-.08-7.33,0-11-.08-.82,0-1.75.18-2.28-.76a3.94,3.94,0,0,1,4-3.31c3.57,0,7.14,0,10.71,0h27.84c2.26.11,4.48,1.91,4.71,3.8-1.24,1.09-2.75.21-3.86.53a28.08,28.08,0,0,1,5.18.23C170,115.79,170.24,116.07,170.08,116.59Z"/><path class="cls-9" d="M159.46,106.63l-30,0c-.43-1.64,1.26-1.78,1.9-2.67a1.1,1.1,0,0,1,.48-.07c2.86-.23,5.72-.08,8.13-.12h-5.28c-.57,0-1.18.13-1.66-.35-.52-1.27.71-1.1,1.24-1.52h20.12c2.31.45,3.49,2.36,5,3.85A.65.65,0,0,1,159.46,106.63Z"/><path class="cls-18" d="M143.83,92.91c2.61,0,5.23.07,7.84,0A4.2,4.2,0,0,1,155,94.08c1.09,1.08,2.14,2.21,3.5,3.61h-9.25c-1-.6-2.49-.79-2.36-2.48.38-.78,1.1-.7,1.79-.7H151c-1.58.07-3.53-.09-5.49,0a6.68,6.68,0,0,0-2.56,0c-1.67-.25-3.34.23-5,0,1.17.35,2.56-.54,3.54.74.14,1.71-1.33,1.89-2.35,2.5h-7.4c-.51-.53-.33-1.06,0-1.59a12.89,12.89,0,0,1,3.19-2.88c2.2-.35,4.42,0,6.63-.16A6.65,6.65,0,0,0,143.83,92.91Z"/><path class="cls-18" d="M118.87,116l-.33.63H110l-.21-.38c1.9-1.73,3.77-3.48,5.71-5.15.3-.26.92-.2,1.39-.2H164c.21.09.21.19,0,.28-12.08,0-24.16.13-36.23-.06a7.24,7.24,0,0,0-6.71,3.27.87.87,0,0,1-.25.35C120.06,115,119,114.7,118.87,116Z"/><path class="cls-18" d="M159.46,106.63l-5.09-4.71,8,0a2.28,2.28,0,0,1,1.75.61c1.34,1.29,2.56,2.69,4,4.14Z"/><path class="cls-19" d="M107.65,124.62a6.73,6.73,0,0,0-.61-3.85h65.14l2.72,0a.49.49,0,0,1-.12.56,2.93,2.93,0,0,1-2.13.46c-13.12,0-26.24.14-39.35,0-5-.08-10-.13-15-.2-.64,0-1.28.06-1.92.1-2.63.16-4.53,1.64-6.33,3.36A1.85,1.85,0,0,1,107.65,124.62Z"/><path class="cls-18" d="M164,111.14v-.28c2.48,0,5,0,7.46,0a3.24,3.24,0,0,1,2.91,1.24c.79,1,2.06,1.5,2.76,2.6-.31.63-.91.69-1.5.7a27.28,27.28,0,0,1-7-.31,1.15,1.15,0,0,1-.49-.38C166.67,113.63,165.75,111.91,164,111.14Z"/><path class="cls-18" d="M134.25,101.92l-1.31,1.23a.92.92,0,0,1-.3.35c-1.77.49-3.59.22-5.21.3,1.16.36,2.72-.7,3.91.64l-1.9,2.22h-8.68c1.24-1.37,2.48-2.78,3.77-4.15a2.5,2.5,0,0,1,1.91-.63Z"/><path class="cls-9" d="M147,95.46a9.74,9.74,0,0,1,2.21,2.23H139.06a9.7,9.7,0,0,1,2.2-2.23c.1-.42.2-.84.74-.91,1.43-.07,2.86-.06,4.29,0C146.84,94.61,146.94,95,147,95.46Z"/><path class="cls-19" d="M148.49,88.63h-8.6c1-1.68,2.67-2.46,3.84-3.73.3-.33.68-.17,1,.1A21.6,21.6,0,0,1,148.49,88.63Z"/><path class="cls-19" d="M174.9,121.08v-.28H182a6.18,6.18,0,0,0-.58,3.78c-.56,1-1.49.67-2.33.67a34.15,34.15,0,0,1-3.77-3A1.2,1.2,0,0,1,174.9,121.08Z"/><path class="cls-20" d="M168.43,114.74l8.71-.06,1.65,1.47-.09.44h-8.62l-.62-.62C169.05,115.61,168.21,115.62,168.43,114.74Z"/><path class="cls-18" d="M143.83,92.91c-1.53.66-3.13.22-4.7.3-1.42.08-2.85,0-4.28,0,1.53-.64,3.13-.21,4.7-.29C141,92.85,142.4,92.91,143.83,92.91Z"/><path class="cls-18" d="M131.66,96.1v1.59h-1.34A2.77,2.77,0,0,1,131.66,96.1Z"/><path class="cls-21" d="M99.3,115.88a1.25,1.25,0,0,1-.39-.31c-.22-.33,0-.62.22-.85.75-.75,1.48-1.53,2.28-2.24q4.84-4.28,9.74-8.5c.37-.32.74-1,1.31-.48s0,1.08-.4,1.45c-3,2.61-5.92,5.2-8.87,7.8-.92.81-1.8,1.67-2.7,2.5A1.64,1.64,0,0,1,99.3,115.88Z"/><path class="cls-21" d="M121.45,92.48c-.41,0-.62-.14-.72-.42-.14-.44.14-.71.41-1,1.86-1.74,3.72-3.49,5.6-5.22s3.86-3.49,5.81-5.21c.44-.4.91-1.22,1.56-.62s-.17,1.13-.57,1.51Q127.87,86.8,122.14,92A6.55,6.55,0,0,1,121.45,92.48Z"/><path class="cls-21" d="M173.14,100.94l-.38.15a.92.92,0,0,1-1-.31c-1-.92-2.06-1.84-3.08-2.77l-8.11-7.44c-.2-.18-.39-.37-.57-.56-.33-.37-.68-.81-.28-1.26s.86,0,1.2.29q3.54,3.19,7.08,6.43,2.24,2,4.44,4.11A1.65,1.65,0,0,1,173.14,100.94Z"/><path class="cls-21" d="M152.8,78a2.59,2.59,0,0,1,1.33.75L165,88.64a4.89,4.89,0,0,1,.46.45c.32.37.68.82.28,1.26s-.87,0-1.21-.29c-2-1.81-4.06-3.61-6.06-5.45s-3.74-3.48-5.6-5.24c-.3-.28-.71-.57-.47-1.08C152.47,78.14,152.7,78.05,152.8,78Z"/><path class="cls-8" d="M132.23,133.81l.06,4.28a1.86,1.86,0,0,1-1.61.49c-5.34-.07-10.68,0-16,0-1.82,0-3.61.36-5.43.29a7.22,7.22,0,0,1-3.24-.73l-1.8-.88a5.56,5.56,0,0,0,3.42-3.36,2.45,2.45,0,0,1,2-.68q10.33-.06,20.65,0A2.29,2.29,0,0,1,132.23,133.81Z"/><path class="cls-8" d="M132.29,147.06l-26.65,0-1.48-.57a5.38,5.38,0,0,0,3.5-3.66,2.28,2.28,0,0,1,2-.7q10.32-.06,20.63,0a2.29,2.29,0,0,1,1.91.63Z"/><path class="cls-16" d="M132.23,133.81l-24.61.05a5.34,5.34,0,0,0-1.63-5c.34-.81,1.09-.79,1.76-.8,7.67,0,15.33-.13,23,.07a1.62,1.62,0,0,1,1.49.73Z"/><path class="cls-16" d="M132.23,142.78l-24.57.07A5.45,5.45,0,0,0,106,138.1h26.29Z"/><path class="cls-8" d="M132.24,128.87H106l-1.78-.94a5.59,5.59,0,0,0,3.44-3.31h2.24a4.86,4.86,0,0,1,2.58-.73c4.42,0,8.85,0,13.27,0a2.82,2.82,0,0,1,1.84.41,2.2,2.2,0,0,1,.6.93,2.06,2.06,0,0,0,2.16,1.54c.71,0,1.54-.13,2,.73Z"/><path class="cls-22" d="M106.44,123.4a3.45,3.45,0,0,1-3.49,3.4,3.49,3.49,0,0,1-3.35-3.55,3.42,3.42,0,1,1,6.84.15Z"/><path class="cls-22" d="M103,138.32a3.41,3.41,0,1,1,.06,6.82,3.37,3.37,0,0,1-3.41-3.31A3.32,3.32,0,0,1,103,138.32Z"/><path class="cls-22" d="M103,135.92a3.31,3.31,0,0,1-3.35-3.51A3.38,3.38,0,0,1,103,129.1a3.33,3.33,0,0,1,3.41,3.45A3.28,3.28,0,0,1,103,135.92Z"/><path class="cls-10" d="M132.3,127.51l-2.23-.07c-1.86,0-2.41-.59-2.5-2.49-.09-1.24.59-1.7,1.73-1.77,9.08-.53,18.18-.17,27.27-.25a2.57,2.57,0,0,1,2.75,2.13c.37,1.33-.4,2.14-1.37,2.75a1.94,1.94,0,0,1-2.59-.29Z"/><path class="cls-8" d="M181.51,133.92a5.47,5.47,0,0,0,3.27,3.33l-1.8.87a5,5,0,0,1-2.78.49c-5.64-.13-11.29-.14-16.93,0-2,.05-3.93.21-5.9.16a2.29,2.29,0,0,1-2-.74l.06-4.22a2.65,2.65,0,0,1,2.38-.6q9.56.45,19.13,0C178.47,133.15,180.13,132.71,181.51,133.92Z"/><path class="cls-8" d="M181.34,142.81a5.38,5.38,0,0,0,3.57,3.69l-1.37.54c-2.27,1.1-4.72.85-7.08.69-6.45-.42-12.89-.1-19.34-.21-.64,0-1.3.08-1.77-.5l.06-4.23a2.15,2.15,0,0,1,1.73-.64q11.24-.08,22.47,0A2.32,2.32,0,0,1,181.34,142.81Z"/><path class="cls-8" d="M181.3,151.82a5.51,5.51,0,0,0,2.93,3.67c1,.52-.11.41-.29.58a11.84,11.84,0,0,1-3.9.49c-6.22,0-12.44-.33-18.66.14a39.21,39.21,0,0,1-4.47,0,2,2,0,0,1-1.54-.69c0-1.4,0-2.81,0-4.21a2.35,2.35,0,0,1,2-.69q10.94-.06,21.86,0A2.32,2.32,0,0,1,181.3,151.82Z"/><path class="cls-23" d="M181.51,133.92l-22.42-.07-3.68,0a28.56,28.56,0,0,1,0-5,1.78,1.78,0,0,1,1.67-.72c8.1-.21,16.2-.08,24.3-.06.67,0,1.42,0,1.81.73A4.75,4.75,0,0,0,181.51,133.92Z"/><path class="cls-8" d="M183.19,128.8l-27.78,0c0-.44,0-.89,0-1.33,2.91-.22,3.1-.34,3.47-2.28-.18-1,.47-1.18,1.2-1.28a19,19,0,0,1,2.72-.09h12.78a5.54,5.54,0,0,1,3.21.75l2.66-.05a5.62,5.62,0,0,0,3.38,3.36Z"/><path class="cls-9" d="M155.37,156l28.57.06a5.26,5.26,0,0,0-2.66,4.73l-25.9,0C155.38,159.18,155.37,157.59,155.37,156Z"/><path class="cls-9" d="M181.3,151.82l-25.92,0,0-4.78,28.19,0A5.27,5.27,0,0,0,181.3,151.82Z"/><path class="cls-16" d="M181.34,142.81H155.41l-.06-4.75,27.63.07A5.58,5.58,0,0,0,181.34,142.81Z"/><path class="cls-22" d="M186.08,145.36a3.55,3.55,0,0,1-3.49-3.45,3.48,3.48,0,0,1,3.44-3.47,3.38,3.38,0,0,1,3.46,3.41A3.51,3.51,0,0,1,186.08,145.36Z"/><path class="cls-22" d="M189.5,132.57a3.46,3.46,0,1,1-3.48-3.42A3.43,3.43,0,0,1,189.5,132.57Z"/><path class="cls-22" d="M186,119.86a3.47,3.47,0,0,1,.18,6.93,3.47,3.47,0,0,1-.18-6.93Z"/><path class="cls-22" d="M186,147.64a3.4,3.4,0,1,1-3.42,3.45A3.44,3.44,0,0,1,186,147.64Z"/><path class="cls-22" d="M186,163.72a3.4,3.4,0,1,1,.16-6.8,3.4,3.4,0,1,1-.16,6.8Z"/><path class="cls-24" d="M108.61,148a3.59,3.59,0,0,1,1.71-.31h14.39a6,6,0,0,1,1,.05c.44.06.9.22.9.74s-.46.67-.9.73a7.63,7.63,0,0,1-1,0H110.32a3.61,3.61,0,0,1-1.72-.31A.67.67,0,0,1,108.61,148Z"/><path class="cls-25" d="M108.61,148V149C107.85,148.63,107.85,148.31,108.61,148Z"/><path class="cls-24" d="M120.79,114.38a2.4,2.4,0,0,0,.28,0l13,0a13.58,13.58,0,0,1,1.43,0c.53.06,1.2.11,1.17.81s-.7.71-1.22.71q-7.51,0-15,0a3.43,3.43,0,0,1-.9-.27C119.22,114.5,120.27,114.72,120.79,114.38Z"/><path class="cls-26" d="M149.76,111.79c2.61,0,5.22,0,7.83,0,.45,0,1.1-.14,1.13.55s-.57.7-1.05.7q-8.07,0-16.15,0c-.42,0-1,0-1-.59s.6-.66,1.06-.67Z"/><path class="cls-26" d="M168.43,114.74l1,1.23c-2.23,0-4.46,0-6.69,0-.45,0-1.08,0-1.1-.62s.62-.63,1.08-.64c1.8,0,3.61,0,5.41,0Z"/><path class="cls-27" d="M120.79,114.38l-1.32,1.27-.6.32C118.17,113.83,119.89,114.6,120.79,114.38Z"/><path class="cls-28" d="M132.67,103.2l.27,0c2.81,0,5.62,0,8.43,0,.5,0,1.23-.12,1.25.61s-.72.64-1.22.64c-3.23,0-6.47,0-9.7,0C131.37,103.5,132.2,103.49,132.67,103.2Z"/><path class="cls-29" d="M132.67,103.2l-1,1.23h-.36c-1.76,0-3.52,0-5.28,0-.5,0-1.26.15-1.28-.58,0-.89.8-.68,1.33-.68C128.3,103.15,130.49,103.19,132.67,103.2Z"/><path class="cls-30" d="M147,95.46l-.62-.63c-.59-.06-1.21-.09-1-1,1.86,0,3.72-.08,5.57.05.94.06,2.67-.65,2.66.64s-1.77.44-2.74.59C149.66,95.34,148.3,94.83,147,95.46Z"/><path class="cls-30" d="M141.9,94.83l-.64.63c-1.36-.63-2.81-.17-4.22-.32-.56-.06-1.36.08-1.34-.73s.8-.53,1.28-.53c2,0,3.92,0,5.88,0C143,94.67,142.61,94.89,141.9,94.83Z"/><path class="cls-31" d="M141.9,94.83l1-1a2.87,2.87,0,0,1,2.6,0l1,1A6.87,6.87,0,0,1,141.9,94.83Z"/><path class="cls-16" d="M178.74,124.62q-9,0-18.09,0c-.65,0-1.43-.26-1.82.6a2.31,2.31,0,0,0-2.56-1.66q-13.11.06-26.23,0a2.41,2.41,0,0,0-2.47,1.36,3.15,3.15,0,0,0-2-.3l-15.66,0a8.36,8.36,0,0,1,7.27-3.6c19.25.16,38.49.07,57.74.07A16.57,16.57,0,0,1,178.74,124.62Z"/><path class="cls-26" d="M118.37,131h-7.53c-.51,0-1.23.09-1.27-.62s.71-.64,1.2-.65H126.3c.49,0,1.24-.14,1.19.65s-.76.62-1.28.62Z"/><path class="cls-32" d="M121.79,140c-2.56,0-5.11,0-7.67,0-.45,0-1.12.13-1.18-.49s.61-.77,1.13-.77h15.65c.48,0,1.1,0,1.1.64,0,.8-.73.61-1.21.62C127,140,124.39,140,121.79,140Z"/><path class="cls-24" d="M167.2,132.92c-2.45,0-4.89,0-7.34,0-.61,0-1.48.11-1.48-.77s.87-.77,1.49-.77c4.94,0,9.89,0,14.84,0a4.49,4.49,0,0,1,1.09.16.64.64,0,0,1,.53.53.59.59,0,0,1-.53.68,12.21,12.21,0,0,1-1.9.18C171.67,132.93,169.43,132.92,167.2,132.92Z"/><path class="cls-26" d="M171.53,157c2.51,0,5,0,7.53,0,.48,0,1.24-.2,1.27.57s-.68.69-1.2.69H163.6c-.52,0-1.23.05-1.19-.7s.79-.56,1.28-.56C166.3,156.94,168.92,157,171.53,157Z"/><path class="cls-28" d="M165.52,149c-2.56,0-5.12,0-7.68,0-.5,0-1.24.13-1.28-.59s.71-.67,1.21-.67q7.68,0,15.35,0c.52,0,1.26-.05,1.27.64,0,.9-.84.62-1.36.63C170.53,149,168,149,165.52,149Z"/><path class="cls-24" d="M172,138.41c2.45,0,4.9,0,7.35,0,.62,0,1.49-.11,1.48.78s-.87.77-1.48.77q-7.44,0-14.86,0c-.6,0-1.52.12-1.51-.74s.87-.8,1.51-.8Z"/><path class="cls-24" d="M122.21,123c-2.45,0-4.9,0-7.35,0-.6,0-1.52.11-1.51-.74s.87-.8,1.51-.8h15c.58,0,1.33,0,1.33.78s-.76.76-1.33.76C127.32,123,124.76,123,122.21,123Z"/></g></g></g></svg>