<svg xmlns="http://www.w3.org/2000/svg" viewBox="0 0 290.54 208.23"><defs><style>.cls-1{fill:#1fa3b5;}.cls-2{fill:#df5b49;}.cls-3{fill:#5b2b0b;}.cls-4{fill:#fefefe;}.cls-5{fill:#eec74a;}.cls-6{fill:#fefdfc;}.cls-7{fill:#d05322;}.cls-8{fill:#3f1e07;}.cls-9{fill:#caa23c;}.cls-10{fill:#d5c9c1;}.cls-11{fill:#eeb4a2;}.cls-12{fill:#d66337;}</style></defs><title>Recurso 8</title><g id="Capa_2" data-name="Capa 2"><g id="Pagina_Movil" data-name="Pagina Movil"><g id="proyecto_2" data-name="proyecto 2"><path class="cls-1" d="M145.27,0Q217.9,0,290.54,0q0,104.12,0,208.23-145.28,0-290.54,0Q0,104.12,0,0,72.63.06,145.27,0Z"/><path class="cls-2" d="M145.2,22.13c44.71-.24,83.54,36,82.56,83.88-.93,45-38.43,81.24-84.75,80.11a82,82,0,0,1,2.19-164Z"/><path class="cls-3" d="M84.27,115.38C81,114.19,80.44,111.16,83,109c7.81-6.71,15.52-13.54,23.49-20,10.32-8.43,20.29-17.28,30.49-25.85a3.69,3.69,0,0,1,2.17-.88c21.58-1.71,39.8,5.23,54.69,21,10,10.53,15.23,23.08,16.64,37.37.41,4.14.78,8.29-.6,12.36a17.5,17.5,0,0,1-15.6,11.84q-.72,0-1.44,0H85.92c-1.56,0-3-.18-3.91-1.65-1.32-2.12-.41-4.3,2.25-5.42a2.67,2.67,0,0,1,2.23-.65H192.77c3.48,0,6.4-1.13,8.42-4a10.94,10.94,0,0,0,.89-11.53c-1.78-3.78-5.14-5.43-9.23-5.5-5-.08-10,0-15,0H148.35c-3,0-3,0-3.3,3,.07,1.16.09,2.31.07,3.47,0,1.56-.52,2.8-2.25,3.14a.75.75,0,0,0-.66.75,11.46,11.46,0,0,1-.07,2.19,32.86,32.86,0,0,1,.09,4.09,4.39,4.39,0,0,1-1.23,3.15c-1.75,1.29-2.82,1.29-4.59,0-1.26-1.19-1.29-2.72-1.25-4.29,0-1,0-2,.1-3a9.72,9.72,0,0,1,0-2.35,50.81,50.81,0,0,1,0-6.87c-.32-4.16-.23-3-7-3.32-3.51-.17-7-.14-10.55,0-6,.27-5.94-.72-6.25,2.94a26.84,26.84,0,0,1,0,4.3,2.22,2.22,0,0,1-1.87,2.27,2,2,0,0,1-2.54-1.33c-.1-1.59,0-3.19,0-4.78v-1.48c-.12,4.06.26,8.11.15,12.16-.59,1.78-1.8,2.62-3.36,2.36a3.08,3.08,0,0,1-2.51-3.33,3.7,3.7,0,0,0,0-.94,10,10,0,0,1,0-2.05,57.34,57.34,0,0,1,0-7.18c-.23-2.88-.23-2.88-3.19-2.88H86.49A2.71,2.71,0,0,1,84.27,115.38Z"/><path class="cls-4" d="M141.07,127.4v-.23c.54-1.65,1.58-1.59,2.6-1.6,5.5-.06,11,0,16.48,0q16.23,0,32.47,0a8,8,0,0,0,2.84-.3,2.82,2.82,0,0,0,2-3.1,2.44,2.44,0,0,0-2.62-2.27c-.69-.05-1.38,0-2.08,0q-22.71,0-45.42,0c-1,0-2.08.28-2.77-.78-.22-3.72-.22-3.72,3.44-3.72q22.1,0,44.19,0c4.7,0,8.59,1.56,10.6,6,3.36,7.42-.6,16.53-9.95,16.49-6,0-11.95,0-17.93,0H86.18c-.83,0-1.65-.08-2.47-.09.29-3.33,1.79-2.87,3.07-2.87,7.09,0,14.19,0,21.28,0q12.89,0,25.77,0a4.61,4.61,0,0,1,2.9.68,3.27,3.27,0,0,0,3.9,0,5.34,5.34,0,0,1,3.23-.67h48.77a14.78,14.78,0,0,0,2.4-.08,2.78,2.78,0,0,0,2.45-2.72A2.81,2.81,0,0,0,195,129.2a17.45,17.45,0,0,0-2.4-.07q-24.06,0-48.13,0C143.19,129.12,141.8,129.48,141.07,127.4Z"/><path class="cls-5" d="M136.73,135.5l-18.06.05H84.3a17.4,17.4,0,0,1,0-7.15,2.33,2.33,0,0,1,1.91-.62q6.89,0,13.77,0a2.54,2.54,0,0,1,1.81.49c0,.27,0,.53,0,.79a2.36,2.36,0,0,0,1.92,2.71,2.43,2.43,0,0,0,3-1.72c.32-.6-.21-1.43.51-1.93a2.73,2.73,0,0,1,1.7-.34q12.38,0,24.76,0a2.43,2.43,0,0,1,2.07.62c0,1.38.09,2.76,0,4.14A4.13,4.13,0,0,0,136.73,135.5Z"/><path class="cls-5" d="M101.76,118.87v7.32a2,2,0,0,1-1.86.69q-6.86,0-13.73,0a2.15,2.15,0,0,1-1.87-.69v-7.32a2.31,2.31,0,0,1,2-.69c4.47,0,8.94,0,13.41,0C100.49,118.19,101.26,118.14,101.76,118.87Z"/><path class="cls-4" d="M101.76,118.87H84.3l0-3.49c5.48,0,11,0,16.43-.07.93,0,1.22.29,1.13,1.18S101.78,118.08,101.76,118.87Z"/><path class="cls-6" d="M84.3,126.19h27.11c-7.31,2.95-14.67,2.1-22,2.22-1.69,0-3.39,0-5.09,0Z"/><path class="cls-7" d="M148.35,102.81a17.53,17.53,0,0,1-8.76-4.25,15.88,15.88,0,0,1,10.25-27.47,16.63,16.63,0,0,1,12.23,4.55,3.13,3.13,0,0,1,2.09,1.59c3.79,5.62,4.3,11.58,1.14,17.55s-8.44,8.8-15.23,8.68A1.84,1.84,0,0,1,148.35,102.81Z"/><path class="cls-5" d="M141.61,128.41l52.65.05c2.94,0,4,1.34,4.14,4.63a2.28,2.28,0,0,1-2.11,2.36c-1.91.15-3.82.1-5.73.1h-48c-.64,0-1.28,0-1.92-.06,1-1.08.93-2.41.91-3.74C141.53,130.64,141.58,129.52,141.61,128.41Z"/><path class="cls-5" d="M144.53,119.05h49.75c2.65,0,4,1.25,3.95,3.65,0,0,0,0,0,0-1.26,3.82-3.05,3.44-4.79,3.44H141.6c-.12-.75-.21-1.32,1-1.15,1.32.19,1.9-.62,1.92-1.89Z"/><path class="cls-8" d="M148.35,102.81c5.12.39,9.75-.74,13.52-4.44a15.91,15.91,0,0,0,.8-22c-.21-.24-.4-.49-.6-.74.35-.42.73-.26,1.15-.1,9.81,3.69,13.29,16.15,7,24.52a16.33,16.33,0,0,1-21.71,3.6C148.42,103.62,146.74,103.29,148.35,102.81Z"/><path class="cls-5" d="M135.76,119.05c0,2.38,0,4.75,0,7.13a2.23,2.23,0,0,1-2,.7q-12.43,0-24.86,0a2.48,2.48,0,0,1-1.81-.45c-.23-.84-.67-1.7.21-2.44a2,2,0,0,0,2.57,1c1-.29,1-1.21,1-2.09,0-1.33,0-2.66.06-4a2,2,0,0,1,1.85-.68c6.38,0,12.76-.07,19.13,0A6.35,6.35,0,0,1,135.76,119.05Z"/><path class="cls-4" d="M135.76,119.05c-8.26-.31-16.54-.07-24.8-.18-.22-3.54-.22-3.54,3.31-3.54,6.55,0,13.11.07,19.66,0,1.71,0,2.13.5,1.9,2A16.84,16.84,0,0,0,135.76,119.05Z"/><path class="cls-6" d="M107.05,126.16l28.72,0v2.23l-28.7,0A2.62,2.62,0,0,1,107.05,126.16Z"/><path class="cls-9" d="M107.05,126.16a5.43,5.43,0,0,0,0,2.27c-.1.55.1,1.16-.34,1.63,0-4.32,0-8.64,0-13,0-.57-.19-1.18.2-1.7,1,1.68-1.12,3.71,2.32,5.12l-.08,2.38C106.38,123.75,107.13,125,107.05,126.16Z"/><path class="cls-10" d="M107.28,118.86c-.76-1.09-.15-2.32-.38-3.47C107.83,116.46,107.11,117.71,107.28,118.86Z"/><path class="cls-11" d="M151.54,75.62c-.36.57-.92.6-1.53.65-5.55.48-9.26,4-10.17,9.54-.14.86.27,2.45-1.33,2.2s-1-1.72-.88-2.76a12.78,12.78,0,0,1,11-11.11c1-.16,2.13-.53,3,.51A.74.74,0,0,1,151.54,75.62Z"/><path class="cls-12" d="M151.54,75.62v-1C152.33,75,152.33,75.3,151.54,75.62Z"/></g></g></g></svg>