<svg xmlns="http://www.w3.org/2000/svg" viewBox="0 0 181 181"><defs><style>.cls-1{fill:#2c3e50;}.cls-2{fill:#efd050;}.cls-3{fill:#edc92c;}.cls-4{fill:#e0b500;}.cls-5{fill:#dbb626;}.cls-6{fill:#492a15;}.cls-7{fill:#e9c29c;}.cls-8{fill:#343433;}.cls-9{fill:#f6f6f6;}.cls-10{fill:#fff;}.cls-11{fill:#29636d;}.cls-12{fill:#0e2c2d;}.cls-13{fill:#17474c;}.cls-14{fill:#6fc5bc;}.cls-15{fill:#8dd3d5;}</style></defs><title>Recurso 2</title><g id="Capa_2" data-name="Capa 2"><g id="Pagina_Movil" data-name="Pagina Movil"><g id="La_agencia" data-name="La agencia"><g id="_2c3e50ff" data-name="#2c3e50ff"><path class="cls-1" d="M85.18,0H95.82A90.75,90.75,0,0,1,181,85.19V95.84A90.8,90.8,0,0,1,95.84,181H85.16A90.73,90.73,0,0,1,0,95.83V85.16A90.77,90.77,0,0,1,85.18,0m2.58,18.84c-5.87.24-12,2.6-15.49,7.52-3.89,5.23-4.49,12-4.21,18.35-2.12.07-5.13-.31-6.22,2-.05,1.88,1.67,3,3.21,3.68a36.7,36.7,0,0,0-1.45,8.89,28.37,28.37,0,0,0,3.45,13,26.9,26.9,0,0,0,42.7,5.65,27.44,27.44,0,0,0,7.65-18.47l-.19-.16A26.78,26.78,0,0,0,116,50.39c1.81-.6,4.42-2.92,2.47-4.75-1.61-1-3.64-.91-5.48-.93.3-6.48-.33-13.54-4.53-18.8-3.57-4.64-9.48-6.82-15.18-7.08-.87-.36-1.74-.7-2.6-1-1,.3-1.93.66-2.87,1.05M74.4,90.08c-3.36.83-5.92,3.48-7.61,6.39a46.32,46.32,0,0,0-5.13,15.88c-1.84,11.39-3.1,22.87-4.23,34.34-.25,7.79,6,15.42,14.07,15.45l.07-.29c6.36.46,12.78.22,19.16.14,4.87.08,9.75-.06,14.62,0,1.35-.09,3,.29,4-.89.05.24.13.75.18,1,8,0,14.28-7.67,14-15.45-1.13-13.12-2.34-26.27-4.22-39.31-.94-5.56-2.38-11.72-7-15.38-3.57-2.83-8.39-2.22-12.63-2.13-3.38-.06-6.78-.24-10.15,0a58.19,58.19,0,0,0-7.47,0A33.93,33.93,0,0,0,74.4,90.08Z"/></g><g id="_efd050ff" data-name="#efd050ff"><path class="cls-2" d="M87.76,18.84c.94-.39,1.89-.75,2.87-1.05-.29,9.35,0,18.7-.15,28.05-1.66,0-3.33,0-5,0l-1-.85a89.74,89.74,0,0,1,.7-18A27.6,27.6,0,0,1,87.76,18.84Z"/></g><g id="_edc92cff" data-name="#edc92cff"><path class="cls-3" d="M90.63,17.79c.86.34,1.73.68,2.6,1,4.17,8.26,3.34,17.84,3.46,26.8-2.07.14-4.13.24-6.21.21C90.58,36.49,90.34,27.14,90.63,17.79Z"/><path class="cls-3" d="M72.27,26.36c3.51-4.92,9.62-7.28,15.49-7.52a27.6,27.6,0,0,0-2.63,8.09,89.74,89.74,0,0,0-.7,18l1,.85c-5.8-.37-11.61-.83-17.42-1.09C67.78,38.41,68.38,31.59,72.27,26.36Z"/></g><g id="_e0b500ff" data-name="#e0b500ff"><path class="cls-4" d="M93.23,18.83c5.7.26,11.61,2.44,15.18,7.08,4.2,5.26,4.83,12.32,4.53,18.8-5.42.15-10.82.67-16.25.92C96.57,36.67,97.4,27.09,93.23,18.83Z"/></g><g id="_dbb626ff" data-name="#dbb626ff"><path class="cls-5" d="M61.84,46.71c1.09-2.31,4.1-1.93,6.22-2,5.81.26,11.62.72,17.42,1.09,1.67,0,3.34,0,5,0,2.08,0,4.14-.07,6.21-.21,5.43-.25,10.83-.77,16.25-.92,1.84,0,3.87-.12,5.48.93,2,1.83-.66,4.15-2.47,4.75a31.83,31.83,0,0,1-6.66,1.8C101.6,53.51,93.78,53.37,86,53.44c-7-.39-14.29-.51-21-3C63.51,49.74,61.79,48.59,61.84,46.71Z"/></g><g id="_492a15ff" data-name="#492a15ff"><path class="cls-6" d="M65.05,50.39c6.66,2.54,13.92,2.66,21,3a65.91,65.91,0,0,1-22.4,5.84A36.7,36.7,0,0,1,65.05,50.39Z"/><path class="cls-6" d="M109.29,52.19a31.83,31.83,0,0,0,6.66-1.8,26.78,26.78,0,0,1,1.26,8.88C114.51,57,111.92,54.56,109.29,52.19Z"/><path class="cls-6" d="M75.94,74.7c-1.77-2.09-.82-6.73,2.62-5.44.18.7.37,1.39.58,2.09A2.36,2.36,0,0,0,77,70.5c-.67,1.82,1.29,3.13,2.86,3.27,1.61,0,2.33-1.6,3.28-2.64,1.73-2.14,5.48-2.87,7.37-.55,1.5-1.87,4.43-1.79,6.24-.45,1.16.73,1.81,2,2.74,2.92,1.43,1.47,4.32.33,4.65-1.59.17-1.89-1.62-.79-2.28-.11.21-.7.41-1.41.61-2.11a2.46,2.46,0,0,1,3.43,2.06c.35,2.63-1.67,5-4,5.82-3.87,1.4-9,.84-11.38-2.89C87.37,79,79.39,79.06,75.94,74.7Z"/></g><g id="_e9c29cff" data-name="#e9c29cff"><path class="cls-7" d="M86,53.44c7.78-.07,15.6.07,23.29-1.25,2.63,2.37,5.22,4.79,7.92,7.08l.19.16a27.44,27.44,0,0,1-7.65,18.47,26.9,26.9,0,0,1-42.7-5.65,28.37,28.37,0,0,1-3.45-13A65.91,65.91,0,0,0,86,53.44m-5.24,6.12c-2.92,1.44-2.61,6.46.56,7.37,3.06,1.24,6.1-2.57,4.6-5.38a3.71,3.71,0,0,0-5.16-2m15.66.17c-2.71,1.53-2.31,6,.58,7.16,2.77,1.31,5.94-1.91,5-4.69a3.71,3.71,0,0,0-5.59-2.47m-20.48,15c3.45,4.36,11.43,4.25,14.56-.47C92.88,78,98,78.52,101.88,77.12c2.34-.87,4.36-3.19,4-5.82a2.46,2.46,0,0,0-3.43-2.06c-.2.7-.4,1.41-.61,2.11.66-.68,2.45-1.78,2.28.11-.33,1.92-3.22,3.06-4.65,1.59-.93-1-1.58-2.19-2.74-2.92-1.81-1.34-4.74-1.42-6.24.45-1.89-2.32-5.64-1.59-7.37.55-.95,1-1.67,2.59-3.28,2.64-1.57-.14-3.53-1.45-2.86-3.27a2.36,2.36,0,0,1,2.15.85c-.21-.7-.4-1.39-.58-2.09C75.12,68,74.17,72.61,75.94,74.7Z"/><path class="cls-7" d="M57.43,146.69q8.51,0,17,0-1.38,7.59-2.87,15.16l-.07.29C63.46,162.11,57.18,154.48,57.43,146.69Z"/><path class="cls-7" d="M107.4,146.7c5.39,0,10.78,0,16.17,0,.24,7.78-6,15.4-14,15.45,0-.24-.13-.75-.18-1C108.62,156.34,108,151.52,107.4,146.7Z"/></g><g id="_343433ff" data-name="#343433ff"><path class="cls-8" d="M80.76,59.56a3.71,3.71,0,0,1,5.16,2c1.5,2.81-1.54,6.62-4.6,5.38-3.17-.91-3.48-5.93-.56-7.37m2.07.56c-1.61.88-.74,3.79,1.2,3.17C86.29,62.69,84.94,59.22,82.83,60.12Z"/><path class="cls-8" d="M96.42,59.73A3.71,3.71,0,0,1,102,62.2c.93,2.78-2.24,6-5,4.69-2.89-1.12-3.29-5.63-.58-7.16m2,.58c-1.47,1.27.17,4,1.88,2.78C102.22,61.91,100.26,59,98.45,60.31Z"/></g><g id="_f6f6f6ff" data-name="#f6f6f6ff"><path class="cls-9" d="M82.83,60.12c2.11-.9,3.46,2.57,1.2,3.17C82.09,63.91,81.22,61,82.83,60.12Z"/></g><g id="_ffffffff" data-name="#ffffffff"><path class="cls-10" d="M98.45,60.31c1.81-1.27,3.77,1.6,1.88,2.78C98.62,64.26,97,61.58,98.45,60.31Z"/><path class="cls-10" d="M87.65,98a5.05,5.05,0,0,0,5.69-.19c.1.93.21,1.85.33,2.78-2.43,1.75-4.61,3.8-7,5.54Q87.13,102,87.65,98Z"/><path class="cls-10" d="M86.17,109.77c2.66-2.06,5.23-4.25,7.87-6.35.15,1.11.29,2.24.43,3.36l-.08,1.33c-3,2.49-6,4.89-9,7.33C85.66,113.55,85.91,111.66,86.17,109.77Z"/><path class="cls-10" d="M95,110.9c.2,1.56.4,3.13.59,4.7-3.44,2.38-6.42,5.35-9.82,7.77l-1.4.37c.23-1.67.48-3.35.7-5C88.61,116.43,91.66,113.47,95,110.9Z"/><path class="cls-10" d="M83.83,128.22c4.1-3.2,8.08-6.54,12.09-9.85.2,1.55.39,3.11.59,4.67C92,126.56,87.6,130.31,83.1,133.9,83.34,132,83.59,130.11,83.83,128.22Z"/><path class="cls-10" d="M82.68,137.39c4.86-3.66,9.4-7.72,14.21-11.44.07.5.19,1.51.26,2s.2,1.72.27,2.29c-4.93,4.54-10.31,8.59-15.5,12.85Q82.32,140.24,82.68,137.39Z"/><path class="cls-10" d="M84.31,144.42c4.54-3.63,9-7.38,13.53-11,.19,1.54.37,3.08.56,4.62-4.61,3.57-9,7.36-13.58,11-.89-.83-1.79-1.62-2.72-2.4A15.46,15.46,0,0,1,84.31,144.42Z"/><path class="cls-10" d="M86.73,150.8c4-3.28,8-6.64,12.07-9.85.19,1.64.4,3.28.66,4.91-2.89,2.88-6.21,5.29-9.23,8C89,152.91,87.88,151.85,86.73,150.8Z"/></g><g id="_29636dff" data-name="#29636dff"><path class="cls-11" d="M74.4,90.08a33.93,33.93,0,0,1,7.67-.24q-3.76,28.43-7.63,56.85-8.5,0-17,0c1.13-11.47,2.39-23,4.23-34.34a46.32,46.32,0,0,1,5.13-15.88C68.48,93.56,71,90.91,74.4,90.08Z"/><path class="cls-11" d="M99.69,89.87c4.24-.09,9.06-.7,12.63,2.13,4.65,3.66,6.09,9.82,7,15.38,1.88,13,3.09,26.19,4.22,39.31-5.39,0-10.78,0-16.17,0C104.79,127.76,102.41,108.79,99.69,89.87Z"/></g><g id="_0e2c2dff" data-name="#0e2c2dff"><path class="cls-12" d="M82.07,89.84a58.19,58.19,0,0,1,7.47,0l-.75.56A4.75,4.75,0,0,0,87.65,98q-.53,4.07-1,8.13c-.16,1.22-.31,2.44-.46,3.67-.26,1.89-.51,3.78-.73,5.67-.13,1.09-.26,2.18-.38,3.27-.22,1.68-.47,3.36-.7,5-.21,1.49-.35,3-.53,4.48-.24,1.89-.49,3.79-.73,5.68l-.42,3.49q-.36,2.85-.76,5.71c0,1.16-.66,2.51.18,3.54.93.78,1.83,1.57,2.72,2.4l1.91,1.76c1.15,1,2.29,2.11,3.5,3.09.83,2.63.6,5.4.5,8.1-6.38.08-12.8.32-19.16-.14q1.5-7.56,2.87-15.16Q78.3,118.28,82.07,89.84Z"/></g><g id="_17474cff" data-name="#17474cff"><path class="cls-13" d="M89.54,89.83c3.37-.2,6.77,0,10.15,0,2.72,18.92,5.1,37.89,7.71,56.83.64,4.82,1.22,9.64,1.95,14.45-1,1.18-2.65.8-4,.89-4.87-.11-9.75,0-14.62,0,.1-2.7.33-5.47-.5-8.1,3-2.74,6.34-5.15,9.23-8-.26-1.63-.47-3.27-.66-4.91-.13-1-.27-1.95-.4-2.91-.19-1.54-.37-3.08-.56-4.62q-.33-2.73-.69-5.46c-.07-.5-.19-1.51-.26-2-.13-1-.25-2-.38-2.91-.2-1.56-.39-3.12-.59-4.67-.12-.93-.23-1.85-.34-2.77-.19-1.57-.39-3.14-.59-4.7-.17-1.37-.35-2.75-.52-4.12-.14-1.12-.28-2.25-.43-3.36s-.25-1.91-.37-2.86-.23-1.85-.33-2.78c1.54-1.8,1.85-4.84-.13-6.46-1.13-1.28-2.93-.86-4.42-.93Z"/></g><g id="_6fc5bcff" data-name="#6fc5bcff"><path class="cls-14" d="M87.65,98a4.75,4.75,0,0,1,1.14-7.58c1.49.07,3.29-.35,4.42.93,2,1.62,1.67,4.66.13,6.46A5.05,5.05,0,0,1,87.65,98Z"/></g><g id="_8dd3d5ff" data-name="#8dd3d5ff"><path class="cls-15" d="M86.63,106.1c2.43-1.74,4.61-3.79,7-5.54.12,1,.24,1.9.37,2.86-2.64,2.1-5.21,4.29-7.87,6.35C86.32,108.54,86.47,107.32,86.63,106.1Z"/><path class="cls-15" d="M94.47,106.78c.17,1.37.35,2.75.52,4.12-3.33,2.57-6.38,5.53-9.93,7.81.12-1.09.25-2.18.38-3.27,3-2.44,6-4.84,9-7.33Z"/><path class="cls-15" d="M85.76,123.37c3.4-2.42,6.38-5.39,9.82-7.77.11.92.22,1.84.34,2.77-4,3.31-8,6.65-12.09,9.85.18-1.49.32-3,.53-4.48Z"/><path class="cls-15" d="M83.1,133.9c4.5-3.59,8.86-7.34,13.41-10.86.13,1,.25,1.93.38,2.91-4.81,3.72-9.35,7.78-14.21,11.44Z"/><path class="cls-15" d="M97.15,128q.36,2.73.69,5.46c-4.55,3.62-9,7.37-13.53,11a15.46,15.46,0,0,0-2.21,2.22c-.84-1-.21-2.38-.18-3.54,5.19-4.26,10.57-8.31,15.5-12.85C97.35,129.68,97.22,128.53,97.15,128Z"/><path class="cls-15" d="M84.82,149c4.55-3.64,9-7.43,13.58-11,.13,1,.27,1.94.4,2.91-4.08,3.21-8,6.57-12.07,9.85Z"/></g></g></g></g></svg>